<mxfile host="Electron" modified="2024-02-05T15:31:06.893Z" agent="Mozilla/5.0 (Windows NT 10.0; Win64; x64) AppleWebKit/537.36 (KHTML, like Gecko) draw.io/22.0.3 Chrome/114.0.5735.289 Electron/25.8.4 Safari/537.36" etag="zQ4kTSnJ1xc7SdKhn2Vl" version="22.0.3" type="device">
  <diagram name="Page-1" id="lvJgI1eNlAEgIaCchtWu">
    <mxGraphModel dx="2280" dy="830" grid="1" gridSize="10" guides="1" tooltips="1" connect="1" arrows="1" fold="1" page="1" pageScale="1" pageWidth="850" pageHeight="1100" math="0" shadow="0">
      <root>
        <mxCell id="0" />
        <mxCell id="1" parent="0" />
        <mxCell id="70_-coMu-GgpPG_OgK7x-1" value="" style="rounded=0;whiteSpace=wrap;html=1;" vertex="1" parent="1">
          <mxGeometry x="-710" y="230" width="120" height="60" as="geometry" />
        </mxCell>
        <mxCell id="70_-coMu-GgpPG_OgK7x-2" value="" style="rounded=0;whiteSpace=wrap;html=1;" vertex="1" parent="1">
          <mxGeometry x="-710" y="160" width="120" height="60" as="geometry" />
        </mxCell>
        <mxCell id="70_-coMu-GgpPG_OgK7x-3" value="" style="rounded=0;whiteSpace=wrap;html=1;" vertex="1" parent="1">
          <mxGeometry x="-710" y="90" width="120" height="60" as="geometry" />
        </mxCell>
        <mxCell id="70_-coMu-GgpPG_OgK7x-4" value="" style="rounded=0;whiteSpace=wrap;html=1;" vertex="1" parent="1">
          <mxGeometry x="-710" y="20" width="120" height="60" as="geometry" />
        </mxCell>
        <mxCell id="70_-coMu-GgpPG_OgK7x-5" value="&lt;font style=&quot;font-size: 16px;&quot;&gt;Printatutliput&lt;/font&gt;" style="rounded=0;whiteSpace=wrap;html=1;" vertex="1" parent="1">
          <mxGeometry x="275" y="520" width="240" height="170" as="geometry" />
        </mxCell>
        <mxCell id="70_-coMu-GgpPG_OgK7x-6" value="" style="rounded=0;whiteSpace=wrap;html=1;" vertex="1" parent="1">
          <mxGeometry x="-850" y="90" width="120" height="60" as="geometry" />
        </mxCell>
        <mxCell id="70_-coMu-GgpPG_OgK7x-14" value="" style="edgeStyle=orthogonalEdgeStyle;rounded=0;orthogonalLoop=1;jettySize=auto;html=1;" edge="1" parent="1" source="70_-coMu-GgpPG_OgK7x-7" target="70_-coMu-GgpPG_OgK7x-9">
          <mxGeometry relative="1" as="geometry" />
        </mxCell>
        <mxCell id="70_-coMu-GgpPG_OgK7x-7" value="" style="shape=image;verticalLabelPosition=bottom;labelBackgroundColor=default;verticalAlign=top;aspect=fixed;imageAspect=0;image=data:image/png,iVBORw0KGgoAAAANSUhEUgAAAUoAAADdCAYAAADdPTtKAAAAAXNSR0IArs4c6QAAAARnQU1BAACxjwv8YQUAAAAJcEhZcwAADsMAAA7DAcdvqGQAACrRSURBVHhe7Z0JrB1V/cdPEYgEBGpQQBGKYFQkrDWExdIS/YMFgQIuqGHTahSFCiIYpJTFGGLYyhISEhbBYBVsWZSWrYCFGEQWgSKk5bFE2SmFVoIL938/58339XQ69869793tvfv9JCczc+bsc853fmfWcZUqwRhjTE3WypbGGGNqYKE0xpgSLJTGGFOChdIYY0qwUBpjTAkWSmOMKaGhx4NuuummMH/+/GzLGGPGBlOnTg0HHHBAtlWbUqGcNm1aePXVV8OECRPCHnvskfkaY8zoZtGiRWFgYCBsueWWYc6cOZlvMXWFcunSpWHixInhtddeC+973/syX2OMGRu88847YZNNNglPPvlkFMxa1L1G+corr4RJkyZZJI0xY5L11lsv7LbbbmHJkiWZTzG+mWOMMSVYKI0xpgQLpTHGlGChNMaYEuoKZQOPWBpjzJjHFqUxxpRgoTTGmBIslMYYU4KF0hhjSrBQGmNMCRZKY4wpwUJpjDElWCiNMaYEC6UxxpRQVyj9Zo4xxtiiNMaYUiyUxhhTgoXSGGNKsFAaY0wJFkpjjCnBQmmMMSVYKI0xpgQLpTHGlFBXKP3AuTHG2KI0xphSLJTGGFOChdIYY0qwUBpjTAkWSmOMKcFCaYwxJVgojTGmBAulMcaUYKE0xpgS6gql38wxxpgesCjffPPN6Iqot2+4/OhHP4ppPvvss3G9ncybNy9cddVV2ZYxZrTSdaG88MILw/jx4wsFRfvuvvvuzGdkIJAXXHBBXN94442jayftTt8Y0xl64hrlTjvtFO65555saxBEDYusXWJDuqeffnq2tYpWWrCTJ08ORx11VLY1SKstZGNM++kJoTz44IPDI488spqIYEVOmDAhOmCafPTRR8d1ccYZZ4RvfOMbYeedd46iKkgHS5Q0a8G+rbfeOq5jzU6ZMiWmP23atDBu3LiYNigtLFHCs4+wKms+b9IiDSANlZnwrBOedAjD9N8Y0/v0hFAC1lcqOFdffXU48sgjs60QrT9EKBUXtqdPnx7j3njjjZnvKpHFUq1HXpgnTZoUFi5cGJYtWxZmzZo1lBfhHn300TAwMBBvcLGdXipI04F0W+s6EZAGDqijMab36RmhPP7444eEA0FBWBBAwVSZaazEVNNywiCibEuU8iLbKMqPdBHZVLgPOuigbG0wXCrMjUCcK6+8MtZLQp6mb4zpXXpCKBE4hAMLDoe1hrDkr08iVpoSc02TKTsQTsIjkc1fGyxDaQjWly9fnm0Nbosdd9xxSJQbBXFk2s0lBIScMhpjRgc9Y1ECViVihwgWWYQII4ImqywNI4uU+EUiW0Ze+BBsBFGk+1lPp/Xpvueeey5bWx0EHvFmao9lmQqvMaa36SmhREgQFERK0+C8gCGW3AhBaFKx0Q0hHilqdtotUdVUWJZtKoakC5SHaffee+8dtymn7tiTf73rjhtttFFcIvI48jDG9D51hbITb+ZIPADBQvA0pYa8Zcj1SAQmL4aE03RbIluE0mOZpo0o3nvvvXF6zF1t0kqFmGk/+3RHW2WkHIged8YR+ZkzZ0b/PJQbsSVtwmFZkn7+Tr4xpgepimFNqpZS5cADD8y2eoO5c+dWqgKTba1OVSArs2bNyrYahzSrQll577334vayZcviElinmQYGBoa2iyjypyxVQc22BqkV3xjTHarGS+XOO+/Mtorpqal3PZjyMjXmZsj555+f+Q7ClFevJnKtcqTkrdiUWvvy/ppep9N3qJe2MaY3GTVCyXSba4MIYTo1BwQJkaxahsMSIqbAeUFLyefXCJSHSwCtEG5jTHcZh1mZra8B1+zOPffcpp8ZNMaY0cI+++wTfvazn8VlLUaNRWmMMd3CQmmMMSVYKI0xpgQLpTHGlGChNMaYEuoKZZ0b4sYY0zfYojTGmBIslMYYU4KF0hhjSrBQGmNMCRZKY4wpoe673nyQ9rzzzmvLu95vvfVWuOWWW7ItY0y7+eIXvxi/m2pWp5F3vbsilGeeeWY466yzwoc+9KGwww47ZL7GmHbx+OOPhxdffDEKgv47ZQbpWaHcbLPNwsknnxy/GG6M6QyLFy8Op556anj99dfDWmv5qptoRCg73lpLliwJm266qUXSmA6z3XbbhY9//ONh0aJFmY9plLpCWcfYbBkrVqyIXyi//vrr6x5ABJYfdxGOOEUoraLfwZJ2UR610sUfP/a99NJLme/qHH744dnaKubPn1/3B2O1oFxpmVWP1BW1D2XGv2i/0qAew6WoHCNNM88ll1xSWLduQv3yfcj0L123v2+44YbomI4vWLAgDsI8dNjTTjstrL/++nG7SKCAMI8++mjYZpttYjrq6AzE++67b408GJznnHPOULrEB4RR61i/06dPLxTLWgJay78IhI4yUCbKLjbYYIOYtxx1Wbp0abZ3FcSjbtSZdkSogSX1xn/lypXxVxnDIS0HaVJe1mnLVkGa6UlK4Kfj0EnoF/QTnDHQdaFEpLheuddee4Vjjz228CzOgCHMYYcdFh2DNB+OMPvuu2/8KyJp7bnnnkPCQ8c/4ogjoj/ppNZQmq6EiPCExW+//faLrsziIc18GMqEkDHYEa1aYkBZyS9l2223HcqbfYQ79NBDs72D4Id40W6E4QYZ+QCDXP60CeLdjICLtByIJmVVmcgbAUboVXfKRBnSfYL81R4s0/ZgXfuw5kHrpCfLX5Cf8iQc62pn8mGpdUjTT/2LUNvRx4bTZmbs0XGhzE/nESMGINDZi/5dw6DEn8GiwcEATiENBrBAJHfcccehji4LSHkxcEhX6ZA21hcgmFoH4hRZcwKRfPnll2N6KQxK0kGMscIYoHkoVz5eHgY4IqmyC+pGfPmzpF446kOegnCtHPSkjwWLOFM21Y28aQ+W7GMpgSM8ZaI9iI+YCsQJESYtWb+c+Dg+EnriqP9wPFQfCRrpso44E5f2ULnUbwiDfyq6KaRDmek7HBfFM/1N1y1KwSBA3PJWUwoDIB0EtaBzM8AQVzp9HuKmokEYBrH+Fc52mn4qOHkQBQat4goNbAYbaSHiwxl0pIFLTwIiX07QNvt0cgD8i9piuNC+/A2TeqotUytfFijHSgKHlUY8wrPkkoHQSUsnSsKoLvk65qFeamfi40hLeQPlYZt0OZ61jgWCTfxx48bFY1pLUE1/0RNCyQCjQ+psX4vLL7883HzzzVFQ00GZQjqp4CIWRQKhfBhIWH6E1yDNW19FgiQY7OmgFkXbpNOsWJG+ypWHNCUEoPTxV36i2XzLQGiw/FT/FOUPaVvSzhwfWYAp6clIccvg2isQPj0pFJ3YyJeTLHlj/RdBG2Hl4rguTf3wq9XXTP/QdaGkU2LN1RNJpk95CyAVCEE4OjaWi9JiidPAJJ4GFn4MXvLGAhFMl9PBhMXIVKwIppekl7c8lK8EinwRPPyagfbBEiqCOqTpUR/Vg7x0jZYy4NI6jhTSxorD6sJaS4VP+WmdfBE1jiHtpevMzaI0oej4F6H2oR05zuRda4aAIFLW6667Lp6UccTxTR3TdaG87bbbYmdGaBA6iR2DChEDhIJ19unmgKai3AF/++23h+KwVDq6acNgnjlz5pBVIWuTAUDeCLXiMOARAAaN/CRyRRCfwUTeeTHX9TbKQd5FaRCHPMhP62UigLUjwScPtlU3XQLAn7TkT97DEadacOJAfJQ+bUY7AuXieKnehMWP/NmmXNzEow71rDXKzH7SIX3CX3rppTGNZiEt5c1JkPJQ/hT6Q/6kRL4cl/REYPqPum/m3H333fE6VCvfzHn66afDl7/85XDhhRfG7aKBQqdG8FKBYpuwDLbUksIvDZ8njU+Hx2KQZUV4/FOUPhCefAiv/FKUNyh/wqaWHWmwL803hbD5QZiWIc1DkE++DcgDvzSPojqPhHy+aj/Sxo9ybLjhhvHtD6yxorzxUzmpN/GVnuqc5qM81AaIG3HZrzqnbaS2VFrpPuWtfaSdti1hVZcUwuGneKOZE088MY7pSZMmZT5mxK8wdkIozdgCocKKZvpqeg8L5ZqM+BXGOhpqTCFYXkxXjRlL9MzjQWZsgFByM82YsUTHhdJWqjFmtFH3GuXChQvDBRdc0NJrlE899VT4yle+Eo477rjVHjg2xrSX3XffPVx22WW+RpljxDdz2iWUU6ZMiZYlzyvuvffe2R5jTLv405/+FJ555pnw3nvvhd/85jcWyoSeFMrHHnssTJw4MQrmhAkTMl9jTLvhC+dbbLFFfLtt6tSpma9pRCg7fo2Sg4UlaZE0prNsvvnm8bnReh94McV0/a73m2++Ga3WadOmxSXbRfBMJ//6wPFgcBHPPvtsTOPoo48OV111Vea7eh75/4Wk6RJf4M/zgLha+fHhhDzkS/7NQPnIf968eZnPICpbvTIoblHdKAtx8a/VrmVQJuqTd6TbKkgvPV4pwy33cCCvtH60W9onTP/SdaHkR2PPPfdcOP744+P7w0UDkMGK/0EHHRRfh+MaZxF0cNBXXyQ8xCWP008/fWgwAPsZDKS71VZbDaXL4CAO6XANFRFq14AhXdKnLHo3G/CnnJQNV6sMai8u0CsOcGLgn0fUIa1bs2CBkAYO4ab9WadM7SatTyegb1BHHfeNNtoobL311oXtbvoMrlHW4q677qoceOCB2VZrmD9/fuXTn/50tlWpzJ07t7Js2bK4PjAwUKkOzLie8vDDD8d9YvLkyZWFCxdmW4OQBmmJK6+8sjJr1qy4vvHGG1feeOONuE44tiGf7vjx4+OyKjqVGTNmxHVgHb88aj7SPPjgg2P+5HvUUUdFf9KnrDj2p3kJ/HCUVeUF6kccQRlIOyWtC6TbtONDDz0U12HChAmF+TcDaabtTpuobiobebBNXbSPcoHag3Soj/xpL8ITlv06joSjPuzHL20f8lY44pC/8lM+rKu85EU6+KX+KZSddkpJyzMW2GWXXSqzZ8/OtgxUjYjKnXfemW0VU9eirO7P1tpHtdPGJRYVrzVyNs9THTDxmqYswOrgCdUOnO0dBD+lBdyAwirAGmAfDrTEX+kCU1vdgceyS78WxHpq7eWhTKST5g9YQ1jK1UEZLbAia5l4KkMKZcPCIW2sQ8qbTx+/NC51Iw5O9RaEw69V0F60SVVEoqOcguNEm1Fv6qHXVTkmtEdVyGIZ0+k2lhx//KwK3pAVyQyA44wfkKf65PLly4fqQ1zSIz/8KAtlos2VN2Fog7x/HtKh/PX6muk/Oj715vGEPHRuOi4DoUg0BNPpsjCAsDBAa3XwVECANBkUDFRgsOTD1IK8CM/UN4U64SRuLBmszUD5KRuXDSQKKUXl1Db7ikS0VdC+iB51og1IP62f2p6TjwSO8CCBTJ+mIDzTXJWZOM1QtRbjknQoG+VR+wHtT1kQQNqz3rHgkgVOcVvZbmZ00vVrlEDHxhrgbF/vmpSsF0Sj6OI/HVpWG9YIFAlEKjoMGOIgdAxUYLCmYYgvAcrDgCoadPnwteLXgvqRL/WlbFjaeSuIcqaCQniVFZfWoUhoRwKCo7bm+KXpK3+tax/XWbFCKXcq4sB1VJHGrwX1xKqEfPg0LUG/4kRLuKL9gv20N07WZ2otm/6kq0JJZ+c/wxpIbAPbWgfd7CgiDcfAZRDMmDEj81k1iJQHosbAlshompYOXKaNCKBgXdPyPMTFWqGMKcpX5SMvWVmNkMYFiQLInzKndSOP1IJVHQiPayb/MkgbESEf2jMtK+sqE0vtp3yaTmt/o5BGekJKTxD1oH2AuFi05J2WtQysT2M6LpTpdU86MR/U3XnnneMZH8dAQgDo2LpTy9kdEUSM8KOjSxCwApctWxYHHmLKACYcThYP17j4kC3p4ydrk6kfaeGvOAxApnH4Kz/KWU9kKB/h81Yu+VA+8iQPhCUPZSYf4mqdulMG6sQ2cfHT9VvKJNGgbgpDPgpD3ieccMJQ3diWaLQCXedT+pycOOm89dZbMR+VCT/KNH78+HhcKSPl52REW9c6AQJtzn7iEBd3yCGHDPWLZkAkVVZOOqTFJYM86XGnX6btbvqYqnDVhDtBrb7rfcstt6x211twx1F3QUX+Li3b3NFMScOwnncpxE3zYD0fPt3Pdj6/FPanaDv1J718villZVD8FPzy6dXKg7u7Rf7DoVa+gn3VqfXQneOivPPlVH1Tv3SbJWFEGl/LdH8aF9J9+bZN9wn85NKwYwXf9V6T6kmx9K53zwilGRsgMBJK03tYKNekEaHsiZs5ZuzAtFt3t40ZK1goTUtBKNObacaMBToulEXPURpjTC9T9zNr1Xl7mD17dks/s8Ynnr797W+H/fffP/MxxnQK/mL505/+NPzwhz/MfMyIv0fZLqHk6+Y8FmSM6Sy/+MUvokhaKFfRk0J50003hVNOOSUsXrw48zH9yjXXXBN/X9wNvvrVr4btt98+2+ofdt111/iMroVyFY0IpW/mmI6zcuXKsOmmm8ZfEqy77rotd0888UT4wx/+ULgPd++994YvfOEL4eyzz85KZEwJWJS1uOOOO1r+HOW8efP8HGWfc9FFF1W+9rWvZVuth0+u8Um1lLlz5672cPwDDzzQl897+jnKNenJ5yireWZrjcNrZSJdb4Rmw5v2g8XHq4idglcleX2R1xLVHz772c+G//73v+GFF16I28bUo+em3rxbS6dO0TvPQGdv9IMIkA6OZiDOaBBZtVdaVt4bx0+u1tdviKv30PXuONC+xKHN8++vkw/7cM0ch5RmHhEjP97JppzDOR6UUX0Ax/pwTtamv+k5oWQAIozpAOXLMXylZzhUp1vD+hgEwlHr4669Am1FGfMfltDXjnhDBlf0MQ4EBPE54ogj4kcfEEvaHTHBn49W8LGP9JcatAlCQ3qkj5ASp1maEUrKyfHnox7Ut1mRo3zE1afTqKu+qmRMo/TU1JtBgajRsRmgQpZPHiwNBJV4DHQhf5A1wYAhDIMbRxxgSRi+8iN/wiJApFHv6zbdBsEqOoFQX76Og8DI5eFJBr7Owz6WfI2JusqyZJs0EFodC5ZpnOGehBDKRgWPfHAcFz6hV/RDtyL+/e9/x/IRB1FPHf/CYZ8xjdJTFiWDl8HPwECsUmtFwiYQQz4Cq8+t5ffr1w3yRwQY+AgLloUEASsFK2NgYCAKNKJJOMrAYxRKvxcpEkBAKBE1hF+WYh7aBatRwoPg0WaEpf6CPPCXiOJIl3YjznCEEpqxKsmT8jbzauSiRYvCMcccU9etWLEiC21MfeoKZTuu5dRKk8GNBSdhYplalSn4I6oIXqMDlcGPuDLAQYOOAUje7JN4sj2a4WSDCPKtSpZ8V7GItO3Sr36n/moL2g+HcGrqPRIaFUqOCVPlZt8f55k4rMZ6boMNNshCG1OfnrEoEUkGJYOaaTAWDOJVBOKWtzjLQHj53QTTLqxGBJP8SEOWEQ7xHe0gKjjqo6Usa4Hope1HWxCuln+6bAX/+9//srVyKA+XXnSSawbicLxT18uXU0xv0jPXKLEQmRYzBZbDetG1xhTETF/2hvzgLrpYr6k3woFgIsIMfASUfDTNxg83mqFd1B4scXmRw9KknXQ8aH+sRC45yLIG3RjCn0sTpEFbsU0bpu3eDI1alOTDseaYk3+zqMzUCSeL2Jhm6AmhpAPTmRkUKVw7rDX9JizChihgJTIAWMdiKIL02YeFwXU7Bjtws0K/okgFBnFACGpZtb2A6kvdWMcBQkCdtB+R4SSBValpOPUnHs8z4sd+2hRBZZ/ahGPDu/lAG7OffaSLiA73pHLHHXdka+2HE6NOhginrsu++OKLcWlMKVXhqsntt9/e8jdzfve739X8FUQR8tey0U/95+OJWr9GKPJnOx+/l6BseZfCdr5OVbHI1gYhzMPJGysp+Be1Vb04jTB//vzKxIkTK0uWLMl8WkvRmzn5tqiKf+X//u//sq3+wW/mrEn1pF/6Zk7dj2Jw1r/ooovitKxVXH/99fHLQf4oRufBWsZCxLLqNlxz5LLKBz/4wcyntbzzzjthvfXWy7ZW5/nnnw+f+9zn4uyCZT/hj2KsyYi/HtQOoaxalHH6Y6E03NDp1u9g+U1yP2KhXBMLpelZHnjggWhR8t53N/jmN78Zpk+fnm31DxbKNelJofztb38bZs2aZaHsY5YuXRoH7EknndSWqe+tt94aH5Lnu6dF3H///eEvf/lL2HzzzcPFF1+c+fYHFso1aUQoO34zZ86cOYU3c7jQXnTjwDQP7cjNi9QVtW0+XD5MrZs5QPjhUu2UlRkzZmRbrafoZg75ccNOvPDCC5X3v//9lRUrVmQ+/YFv5qxJIzdzOv5mTi24sF70zGQnGM6DzL0Mj/1ws0SOx3z0WFAK77OzLw0LxMefdtEjRoJHjLSPFwOG8/jUa6+9FvbYY49sq/3oMS/qwc0s2GKLLcImm2wS3njjjbhtTD06/hxlM+/4Cgan3jUW3MHFH8cgYCkY6ITX2z6iyJ808cONFXgmkof35Xg+suhf27Qhz6oqHA92A+3D85H48Qwizx2qfRBI0icsrwEuX748+jdDM2/lcJwQ8OE+z0o8nQAA4afcxjRDz7zCWAsGMxYMS66V6qFqtlnngXQGNesMZgYWlgPXqFjHkmKpdfljDZEG64gsy7EIdaR+vJGUR3VmP+EED5Lz5o7gYW3aDQFVWyFALIfztkwzJ0vy4AH64d4d56UEhFFOwm9MM/S8UMp6YaDzhgkWoAY4S/y4OI1jMAODnsFFHFkPxGPQMLDxJzzCmr6NMhbhJFNkTQpONDhOLoQF2jV942bLLbeMbYpgqm1ZHy5c0mn0sg7HH9csPCuJmHOMOfZ5x75OXloyo5ueeIWxHlgwTJ2wGBnIDGIJZTqAsIAIywBHPAnL4Nc0kr8/MmiwKnEMluFMG0cTsv7yr4YKTblpr4GBgdgmsizVxoI21NMPTL9xpD9cmpl+D4e333471qWe41cQxjRCz1uUDEgsGA3oFDq7YGBLOLEOsSSxRLlhwYCeNGnSkL/ccKaNowmEr5ZIgk4sKfhhLaZC+be//S1+ho32og2xUJnCYqGnx6AZGp1+p8LWTF6f+cxnotVYz62zzjpZaGPq01MWJdehNDXCSfzwZwAjegzs1JLRjRmmj1iVxMP6ZFARlvisM6gZHLrOpjBAfN2sGEvwW9b8dyM1FQXd6aYddMMDYeUGj04wOha0H5AeJy/8SEtWfrM0c52S8nGyTI97o1AvrknKjR8/Pp50jWmGnrEoETkJnhwDA+sFwWObQUon12fUZPkwWBlIWDsMdNb16AuDnkFOGlhBxGWg44+I4o/lib+Ec6xAm6aXJ4A6agpNe2Ap0lYssbJpD9qVdqbNCXvFFVesZq1LSLkmTNsRp1kanXqTL3niJNbNoGvYgm1OksY0RdXCq8ltt93W8gfOf/3rX7fkv97VQV6pimK2ZRqlKoDRdZPqyS8+dN4uquK9xgPn9JVZs2ZlW4MP26+99tqV119/PfPpD/zA+ZpMGSv/9S5iOFaMGXxcpt51y06Apc8lkGuuuSb+V7vVjofIV65cuZrfr371q/ifHNZvv/32OOv4+te/3ravF5mxRd13vasWZbjkkkta+q73tddeG37+85+HJ598MvMx/QgfR2Ha/thjj2U+nYXLBz/5yU/ChhtumPn0B37Xe01G/K73ggULWj71rloRlU996lPZljGmk3jqvSY9OfU2xpjRRleEsirQ2ZoxxvQ+o/ZmjjHGdApPvY0xpgQLpTHGlGChNMaYEiyUxhhTQleE0jd0jDGjibpCaUEzxpguWJR8peaZZ54J//jHPzIfY0wn4KdufCEq/0UpU07dd70XLFgQLr300pa+6/3ggw+GL33pS2H99dcPn/jEJ7r+gQZj+gE+I4iBwlf958yZEz9kbQZp5F3vrgglX3H5zne+E+67776w1lq+n2RMJ9htt93iN0b5JqeFchU9LZSzZ8/OfIwxneLEE0+0UOZoRCh919sYY0romXnvihUr4rTgpZdeynxWh99CsB+3ZMmSzHd1SOP6668P55xzTpg/f37mu8r/tNNOi/FT0nTTvOXP9zhr5cdfHvOQL/k3g+qe/ycM+aoMtdqlXt0oC3HxJ9xwWLRoUUwj7/J5jYT88UoZbrlHgo495aJta7W96R9KhbJT1t8NN9xQs1PScRmce+65Z9h0002HfoSVB7GAfffdN142YJADcV9++eX4sVbSl5CxnwFButxcUrqEUX78d4bw7RospEu5KYv+Sw4IBPlus802Q3UuKgPl5GveqpsEjLbkGjBtUa/Nythss81iG+Ao4wYbbDC03W6oj45Vp6Dd6IvUj+NP29J23RBs0zv0hEUpS6rWT/UZnCeffHLYdtttw3777ReXeeuLjnzooYeGww47LKaDQCxdujTuY4AfccQRMd6xxx47JKCkyzb+xGNQAPtJA/+99torritOLRCsIouQQYZDDGuJLXUjnxQsLPLFn7KxzJeBOuOHSKpuDHTgRCF/2oywtfKvh9oAJ5FknbKRl+omi1Dilu6TyKg9pk+fHtsrFR9OZIRlv+pJOsRR26ZWLPkpnPInXdaJwxKnY0JepKMy5Y8VKC/aUW1PG+LSspr+o+tCSQfkDI7I1YLBiqNzMwAZsHTkFPzo2AJrikHNwGUfDrTEnzRIFxgkspIQWCw5gUUm0S2CwQX5MjHQqRcXz7FOFC4Fiw2Xh3Kmg5PtfBmoQxpXcXDsw0oWhMOvVZAWFvBZZ50VhT4vYuRHvVlyfIFjQntcfvnlsYwSV+DYIlCkJSuSsBwf/AnPMdIMB2FVfRBM9pMufpSFOLS58iZ92ocycZzln0L65Jc/Hpxo8n6mv6grlO2adqfp0qmx/iRg9aBzYylJ3GqBmBImL1winxeDi7SxHIBBl4apVzbyIjwDM4U0cRJvlkVWTC0IjwAgrrQR6/ly5MsJ2mZfOrjxx69VkDbtRZ1UtrR+anvESgKnk6EsQYRTEJ40VWbiNANiBjr5kQ7rSof2pCzkzcyh6Fjk28wY0VWLkk5Lh6WDYl2wZPDUGtBYL1gNdP7UGhHEkzUi0SsSCFkiQP7EIbwEmMGShiF+XpAEVlXRoMuHrxW/FoTH+mGJRcugT61coJypoFBOlRWX1iFdbwUcO0ScdPPtpfy1rn1MeWUVa7+gjiKNXw9dKsmHT9MSHGNZvamlnUI9agmo6W+6KpQIE9akBrgGVH5Q08llhdSDgYuYcE1PaBApTYRFFgfrxEGA2RakkU5zEUNNy/MQF2sFEUhRvhpk5CUrqxEoLw4Bx1piXUIuKHM+j9SC1c0h7W8m/zJIGwuNtqZcygPyx5L9iBrloz6ULQ3fCDpeokjQiqB9gPDKuxbsI3yaNuXk2BadmE3/0FWhpPMz0OQYUAw+lggjF96BDo5Y0mG5YA/q8LwO+fbbb8cOTQdnABMOp2uCXPeaOXNmTEPWI2jqp7RxDEYJk/xIu57IMO0mfF7Myefwww+PlgxloW55iEMeDEStUw8GrMpLOyDUEkraQIOZurGf9HGceIBpLi8LKL5EoFVQFy5XqO04ftTzX//611DZKU96aYXjjR/l4WREW9c7AdLm7CcOdScNjqP6RTNQf5UJ0SatIvHjxKc64Whr8tbU3vQndd/MoSMx2G666abMZ+TwZg7/Fb744oszn1XIytCAZiBJHAAxIkzql4ZJLQ6RhkVc2Fb6Si9FAxokWGkaKfnyaTv1J322SVPpprCfcqSkZdC+NC5+hFE9IF83Uct/OBTlq7rhx36E8tRTTw3XXXddYd6pH3XHaT2tM35pGO1L4xMO/3x7p+HTfYRnH9v5cHkUlv3kNVbwmzlrMuJXGNsllFhanNnN2AOBweJDKE3vYaFck559hdGMXbC+dHfbmLGChdK0FISS65XGjCVKhbLOzHxYTJw4MU7Pnn766czHGNMJnn322fDUU0/Fz62Z5ii9Rsm1xJtvvjnzaQ2nnHJKvE7ykY98JOywww6ZrzGmXTz22GPhxRdfDN///vfDueeem/kaaMnNnHYIJfzzn/9sS7rGmGKmTp0aPvaxj2VbRvS0UBpjTC/QiFD6Zo4xxpRgoTTGmBIslMYYU4KF0hhjSrBQGmNMCRZKY4wpwUJpjDEllAplnccsjTGmL7BFaYwxJVgojTGmBAulMcaUYKE0xpgSSj+Kwb9tbrnllszHmM7CP3guuOCC8NBDD4XFixdnvqOfejdJP/nJT4Zdd901fO973wubbLJJ5mvaRUu+HmShNN3ixhtvjP/fGT9+fDjppJPCLrvsEtZaq/FJUD0xytMLYcXjjz8evxk5MDAQv9vKnzxN+2hEKDmQNbn11lsr+++/f7ZlTOdYunRpZb311qtUxTLz6T9uv/32yjrrrFP561//mvmYdjBlypTKnXfemW0V0zPXKN98881szZgQTjjhhPjb2wMPPDDzaS38FuGqq67KtlYh/17oj5///OfDeeedF9vCdJeuCyUd8+ijjw7Tpk0LVWWPbt68edne0QV1wXzP14Pp48477zzktt5668JBin8aTmH4l7XSxJ9tcffdd0d/2g83Vk44CxcuDN/97nezrdZDG9Lv8sfh6quvjv5Me3uBH/zgB+HPf/5zWLlyZeZjukJmWRbC1Hvq1KnZVnuoDu7KjBkzsq1KpdpBKzvttFNl2bJlQ06wD9J9Dz/8cPQD9heFT/1Zyj+FdNK4w+Goo46qXHnllXGdtDbeeOO4noI/dU7LLYrCw+TJkytz586N68SbMGFCXKcexFF9CHP++efH9dHM4sWLK9tss0221R5oK47XwQcfnPkMQt+jvR966KHYlmlfIc611167Wn+FWbNmjbjv1GP33Xev3HPPPdmWaTVVQ6P3p97VQR8tMcF2VQxCVQCiRYY1Js4444yhaRHWF2d+/LjYz51RWW6y5NiP34UXXhj9Cas4Spe0sMiwJLDI0vyapSqSoTrwsq0Q65CH8u+4446hOiAzn0Fog6LwlA+rUekSD7/nnnsu1lPtpzDVQRzDjWbefffd+NvbdqP2Vv+jPasiGf3HjRsX/egrgj7y0Y9+NIZTHCxTtouOXav4wAc+ENvEdI+uC+XMmTPjErErmgrVArHgjmD1LB9FEOFgHT86tKAD44ejQxMGQZPg4o4//vi4n+ke/qlwNwvpIbwILmmmkC5lO+644zKf1SEubUB8HIMQP8Qwhe3nn38+VK2MWD/CjaTM/cxBBx0U+wVwbNimzatGRKhanEP78KONEVL6CydfwnBnPj05mrFJ14WSgY54VacusZM++uijUTTpmLUgDmIhAWF77733HlpPRYM0RWrFEY48WJIn1iTiBPXyLoP0jjzyyLhMBRvYZlBRvzzURUKPYJMG1ozKmcI2Fg/1xCGYDNiRlLtf4XjQzrQdDiEUtD37OXniJIgIqE7oWPIcKzO26apQ0jHTGxN0RIQCQaMDQjr4GxUCOnijYBmQLlYmQjUSNAVjIFEPCZlgcNUbVJr2AW2gtsnXmzS32GKLWF6VHddMvc0gqRimIik4XpyIcDp2inPmmWfG9bzFb8YeXRVKOhmdjeuLwKBHIBEChILOKLHAX+LZKsifPLfaaqu4jWiOBCwTXdOirKnAsU698oNKdaeesqRxs2fPjm1AGRFehWNJu8iiZr+mh+QtS8c0DgLIpZKikxjiqX6XHjvC0l+K4pixR9en3ldccUVYvnx5vM7I9JfBjqUkEUAk2Me0lRsV+EE6jebmiPxZap+EBlimHV3WA9ebmHpzbRDBJG8GTSpyjcKUmXhM4dN6AP7UJQ/10onh9NNPj+WgHXbYYYdoJQLWKWXkBhaWjfyBPEiDPMkDETXl0N66LENfSI8VfYK2FoTNC6L6WJEVasYg8d53DTrxeFC/UxXPtj5aMhqpWteV7bffPtvqHjwaxKM/VVFc7RhVT4jxuFVPYJlPe9lnn33iWzqmPVSNjNHzZk6/ghUpq9cMwgzhqaee6vpD1ppyY22mxwirnpuHnXoUiw+CyII13cFC2WXSywFmFRMnTgxz5szJtroDl0o4keWPEX5Fl1Hawe9///vw4Q9/2F8R6jIWStOT/PKXv4zvOLf6Bt5o4oknnojXy3nf23SXUqGsTs+zNWM6x5577hk/fcWHIfjUH58e6xf+/ve/h+nTp4fdd989fOtb3wr7779/tsd0C1uUpmf58Y9/HB588MFw//33h8MOOyysu+66feEOOOCA8NZbb4UFCxYMvblmukvph3t5nu+Pf/xj5mNM9/jPf/6TrY1t1llnnWzNdIJGPtxri9KMGhCQfnCm97BQGmNMCRZKY4wpwUJpjDElWCiNMaYEC6UxxpRgoTTGmBJKhdJv5hhj+h1blMYYU4KF0hhjSrBQGmNMCRZKY4wpwUJpjDElWCiNMaYEC6UxxpRQVyj5iOiyZcuyLWOMGXvwm2e0rh51P9wL2223Xfzi8tlnnx3WXnvtzNcYY0Y37777bjj11FPDXXfdFR555JHMt5hSobztttvCZZddFm688cbMxxhjxgaHHHJIOPbYY8PkyZMzn2JKhdKYTsIfB/mH9jHHHJP5GNN9fDPH9BSvvPJKePXVV7MtY3oDC6UxxpRgoTTGmBIslMYYU4KF0hhj6hLC/wNWmw3eWHk4JQAAAABJRU5ErkJggg==;" vertex="1" parent="1">
          <mxGeometry x="270" y="34.44" width="250" height="167.42" as="geometry" />
        </mxCell>
        <mxCell id="70_-coMu-GgpPG_OgK7x-16" value="" style="edgeStyle=orthogonalEdgeStyle;rounded=0;orthogonalLoop=1;jettySize=auto;html=1;" edge="1" parent="1" source="70_-coMu-GgpPG_OgK7x-8" target="70_-coMu-GgpPG_OgK7x-11">
          <mxGeometry relative="1" as="geometry" />
        </mxCell>
        <mxCell id="70_-coMu-GgpPG_OgK7x-17" value="" style="edgeStyle=orthogonalEdgeStyle;rounded=0;orthogonalLoop=1;jettySize=auto;html=1;" edge="1" parent="1" source="70_-coMu-GgpPG_OgK7x-8" target="70_-coMu-GgpPG_OgK7x-7">
          <mxGeometry relative="1" as="geometry" />
        </mxCell>
        <mxCell id="70_-coMu-GgpPG_OgK7x-19" value="" style="edgeStyle=orthogonalEdgeStyle;rounded=0;orthogonalLoop=1;jettySize=auto;html=1;" edge="1" parent="1" source="70_-coMu-GgpPG_OgK7x-8" target="70_-coMu-GgpPG_OgK7x-10">
          <mxGeometry relative="1" as="geometry" />
        </mxCell>
        <mxCell id="70_-coMu-GgpPG_OgK7x-8" value="" style="shape=image;verticalLabelPosition=bottom;labelBackgroundColor=default;verticalAlign=top;aspect=fixed;imageAspect=0;image=data:image/png,iVBORw0KGgoAAAANSUhEUgAAAU8AAAC/CAYAAAB+KF5fAAAAAXNSR0IArs4c6QAAAARnQU1BAACxjwv8YQUAAAAJcEhZcwAADsMAAA7DAcdvqGQAACudSURBVHhe7Z0LnBVVHcdnLa00Ek1E7UFWWpqEqUlSIVhpmojap5KeoJTRS0NLeymaZho+gAgwBTHzEaWIpD00RAorFLUAUTOgJMtKBSvogbf9np3fcnb23t17Z++9u3v39/185jNzzpzH//zPOf85M3PmTFOhmcQYY0xFbJPujTHGVICNpzHG5MDG0xhjclD0meeCBQuSpUuXpi5jjOm77Lzzzsm4ceOSAQMGpD4ttDOeQ4cOTbbddttk1KhRqY8xxvRdHn744eSqq65KFi1alAwfPjz1zRjPJUuWJBMmTEhWrFiR+hhjjJk8eXKyatWqZPbs2alP5pnnmjVrkiOOOCJ1GWOMAeziPffck7pa8AsjY4zJgY2nMcbkwMbTGGNyYONpjDE5sPE0xpgc2HgaY0wObDyNMSYHbYxnkS81jTHGFMEjT2OMyYGNpzHG5MDG0xhjcmDjaYwxObDxNMaYHNh4GmNMDmw8jTEmB22Mp+d5GmNMeXjkaYwxObDxNMaYHNh4GmNMDmw8jTEmBzaexhiTAxtPY4zJgY2nMcbkwMbTGGNyYONpjDE5aGM8/YWRMcaUh0eexhiTAxtPY4zJgY2nMcbkwMbTGGNyYONpjDE5sPE0xpgc1NR43nnnncn8+fOLbvfff38aqrp89rOfTa666qrUZYwxtaGmxhMDOXfu3LBh1NjkZqsFa9euTdatW5e62oMM9WbcuHHpkTGmUWhjPKs9Sf7UU09NbrrpprAde+yxyf7779/qvvTSS0MYDCwj1Jinn346GEH2xc4D5/BnXwydJx25GfEyKtWoNzv6JazCK382wimfbLpC4bKy4lfLkbYxpnvotmeeGJs3vOENYSQ4ZcqUpKmpqdUgYYB07pxzzgkjN9zisssuS0aOHJncfPPNwZ/j2PBjqPAn3T333DMYL8CtPXmRbnyLT74aJTIyPu6440LayLDTTjuFsMXSpSy4CZctC2XgPP42oMY0Dt1mPDEujEYXLVoURqKMUjE+AoMzevTocG7NmjXBLUO3YcOGMHJl4xxGKR4JcnzfffeFuJMmTQqGsH///skpp5wS9nPmzEle8YpXpKFLQ7qxfBjC5cuXt7ox3kB+8ShbRh+QUXky8jbGNAbdZjwxJBhHRm+MJDFA2ZFZbGwwdnqWiREE4rFBfLs8YsSIYLBgyJAhuUd85K902GfdMtgqC8YdeWTQjTGNS7cZT4wMt8UPPPBAcGdHghin2A83o08gnkZ2MmYxxfzyEKez4447tnMLlUXGvVr5G2N6Lt1mPLnlZQR59tlnh1ve+LYbMJSxH+5DDz00jOgYZerWmVt/GdU8xHHvuuuu9KitcSyFjCTPM7k9V1l4rGCMaWy6zXgyqmTU+dRTT4VRpIyljBmGSdOZMJac4/ZYo1EZUQwXYWPD1xGko1t8bu/Jg7R4fMBz0jyQDhcDZKcslEllQV728WMFY0zvp27Gc9CgQW2eYTJKg+OPPz6M8nihMnbs2PCyBTCIjDT1tpvwGCL8CYsfG880GYVioDCA5EFegvDKl1EqeejNt9LkDfvixYuDW2Hxj+WVmzfpsRtUFm7ds2Uhf0aj5GkDakzj0FSI5vhceeWVyapVq5KLL7449ekeMDIYNF68GGNMd/Pb3/42+cAHPpD85je/SX268bbdGGN6Mz3SeHI7rFthY4zpifRI48lzQp4ZGmNMT8W37cYYkwMbT2OMyYGNpzHG5MDG0xhjcmDjaYwxOWhjPKu9GLIxxjQqHnkaY0wObDyNMSYHNp7GGJMDG09jjMlBm1WVrrjiiuTBBx+s6qpKGzduTK6++upk8+bNqY8xxvQchg0bFraOKLaqUk2N5+zZs5OTTz45Ofzww5MBAwakvqYcnnzyyeRXv/pVcuSRR6Y+3c+yZcvCeqV777136tM7oY1v2rQpOeCAA1If05dhLd+XvvSlyZIlS1Kf9tTdeB5xxBHJm970puSYY45JfUy5rFixIpk8eXKbXyN3NxdddFFYBPq9731v6tM7+c53vhMuTvqRoDFHH310cuutt7b5xXlM3dfzZORkw2mM6ekccsghyT333JO6yqON8YwGoTXjmWeeSY+S5E9/+lNw33vvvamPKUWst/i42jz88MPpUQvVrptayp4H5MluWbI6ydLZedOY1PVtOw2Toe8tt9yS+rT4LVy4MHWZUnz7299uvdjouBZQF3Ha/fr1S4/yc/rpp4c99X7dddeF456C9Mmz+UsuuSQcZylmUKsB+qhV2qb21NV4Mor56Ec/mjzyyCPBzRX78ccfD8dw7bXXho7L/vLLLw+N2WzlH//4R+jcJ5xwQrLHHnsE/aEjNulNoyD8OEaP/ChPusQN0jX+dGLCxEZTaVXrwkYe1PXHPvaxYDBIH9jTHvRzPOWLnGwKJ/kJRzsivWq0EfQ4ceLE8AdUnntxrLyVNvmx4Y7PxTKxyR+ZKaPCxBcP+XEe3arcpvdRV+PJW61Ro0aFY3VU7WlwNGS217zmNaEx08CqfdvYm9GoDR3BC1/4wvCH0b322qu1E2okI71isPRLE87JuALG+KGHHgq6Jh2lQadmxMlbddLp6uMc0kB28hC6gCLDDjvsEAwP4L/77rsnBx54YJBr+fLlQW6VBzhWOIydylwN0A8yYeQh1hn6xp82qXyzOsWfdg7IyR9UqS/CURbO85YfXeNPGU3vpG7GkwZGY+KqC9kr7p///Of0qMVIVLNDNAqM2kG6i2/l6fDFwMAAHT+rU9wYSTY6stJgX039k/asWbOCvNl0lSdGhDaixwRqA7HRBMXHCBGW2+1qykp+u+22WzhmH6ctXerilUXnVQbtIW7fsb/pvdTNeNLhGQHR6Nmyt4PyowPRYLUxMjJbkZ4Y/cSdFDcjdowOozgZHfTOqB4jRafHH7+s/mN4LEBnr+aoHxmRnVtYjqlb5NAbzjFjxoRzGp1yHlkJS5tAdsqhESvHnKPM8aOfrsKIV48R0EEpQ1kpjK65Q0BuRqbkg7H1nVXvpc08T0YGq1evrto8T37kdscdd4RjOkLcEOkc2tMJ2ICOwu2i9tl4fYXsPE/pq5ie4hFPrFcMJkaAjkrYOK7iEE76lbEC9oRjxKrzeed5SlYgP+WZlT0bDqMYtwGFV3xdQBSnXIrN8yRNiHWkdHUcy4GbOLHcOl8sHBBWOi6Wj+k+zj///PBBiu7usnTrf9tpTDFqQPirIYEakvbZeH2VuMNBrKf4nI7RG4YPY4PxzMaNwwnVhcISrhr6l6wQ55mVPRtO7mx4uXVRqAaxHBCnW0wOyMqt88XCKSznSuVjehd1fWFk6gsdVS/ojDHVpY3xrMckeWOMaQQ88jTGmBzU3Hh6NGuMaUTavG1nigtTg6r1tn2nnXZK1q1blzQ1NaU+plyYwvP5z38++dnPfpb6dD9MJeIFhyaQ91amTp2aPPHEE8l5552X+pi+zqc//enkzW9+c0Vv22tuPJkSYuNZOaxIxVSaX/7yl6lP90MDY17lpz71qdSnd8IUsL/85S/JN77xjdTH9HUwmgcffHDPMp5///vfk2228aPVSrHxrB2x8eR781//+tfJ//73v/RsdYi6VRtK+TOJnpHP2972ttRnKz/60Y9CO+jOvzGUkjvLvvvum3zkIx9JXVtZv359cuONN4Z5rtWkI7lKnePu6aSTTkpdLdh4dsDatWvDBG/x9NNPh0n8PZWuGs9S5Svmjx/Iv1TcahvP7qoDGc///ve/4bHIcccdl7zoRS9Kz26lVOer1L8c0MV3v/vd8LnpF7/4xdQ3CV/l8VXS+973vtCfitFZvl2RqxL4cur5z39++DLr5z//eerb8gcCFkanDK9+9atT363UQp8dgZ3bfvvtk6VLl4aLFuQxngjYyqxZswoTJ05MXV2nuWMUtmzZEo6feuqpwqmnnhq2m266KfiJSy+9tDB27NiwxSxatCiEx3/NmjWF++67L7iPPfbYcI40iYvfnDlzQpxJkya15hNDnJhsXllIf8SIESEPULrEI0+BXPhxTjKNGzcuuONwldJsNAtDhw5NXW2Jy0Ye6CUL/siTJat7oAxxmqRXLM1mo1mYNm1aOFZ9oleVX7oqF+osK0+xfLsC9ZbNo3nEGWRuvpgWNm7cmPq21Dm6EMgSuzsi2yaK6bkzHn300UJzpy48+eSTwf3EE08UmpqaCo899lhwC9KP9YTe8+QHldaZUH8rxpgxY1rbCbzjHe8ozJw5M3W1BbnZirXValCqLX/mM58pnHHGGamrUBg/fnyh2aimrvY0G83C4MGDU1cLNZ/nqTS5sjKcb25kydy5c4Mf4M+IsLkyWt2CY8IzAuMzQzaOm5XdmgYLShCGKwLhFYcRDaPNLPPnz2/jf9lllyXNxi65//77U5+t7L///ulRywiAdIcMGZI0G4zUtyU9nbv55ptD2sOHDw/uBx54IA1VXWL5N2zYEMqM/Cwrxyo+MchHGdmAuITls0/KzXlBOnJz3BHolzJSp3yPzjFxkUGflHJMvpKJvDlmU/roCDmoW+TinOQD0iSsysB5/Bgt4s+mcmdllp6mTJkS9jF//etfwz7+2oc2FbdNXiwpf1HqWCsp4cemupcM8hccx/UIr3zlK5PtttuuNe7KlSuDbl/ykpcEtyAebS2GfqA8lI+O47adPYfeeKkb++MWCscWp0MfUH1mecELXhBWkBIcv/Wtb01dWyFN9E1b4njkyJHpma1ygvKP/SAbBmgj1Bkbx9iWuB8L/qnWbFRTVz7qdj+tQtBJ4qXJUBwVgeIIg1vISBGHYxooYQBlEZY0qVR+TMZ+0KBB4TxGLts4USbxlAbpAoabRhBfPIotFab0FB9iA8l50lQZ2GdlqAakicFhk5HBQGDIuLhQToF/8yirtTzokPh0EMqN4QH0wjH65HweudEL+aMT0qMBU2/UhXTPhQY5JTdIDuKTP3sZI6WFsaAcoHRIg2OVW2URdEzOjR49umh5eMZYCsKrPZCP2oqMNLpHt+wF7Q8/fctOPHSAP7LhVrlJh3PEj9tdsY7eGchD+uStfNiTL+kjO/2reZTZauwIy60oYfBXOQjLLXccjnUWiE8dcNFCXsITFz2Rfwz/LXvOc56TulrYdddd06O20Edom7QTtT3aCvmSJ+5suaR/3GpX/HuIc2rf7GnjlAc9Z3njG9+YHuWnrg8jKSgFa77FS3220jxsb60MoUaBUlEynUoVJQOFctjoTHHDI53YyBGPyo/DkJ/ccdqlkDGIQQ7JAtk843PVgjwwOGwyKJRFI6dYBkaEND62GF1kFBYdZnVWCZSVvGnQyKKykx6dQw2Z84TT6AbDCh3pSWlpU50x6qZO2ChfXH8ckx/+5EU7KgcZdtLkuBikywCANoc85IXuyAsjzmgWHWD4caMD9E1Y2iDhSRs34aoJctG/kBHIGzc64zfgMcjJec6xpwwYnXe9612t/RBZ+bMkYdTHNGBQXMoRs2XLlnbGsxTIiaHG+KEj0qS9MBgiXRm+uFxsXBBx0wYglo/4tKt4kFYLam48dVVVY0I5qlgUQ+VwheE85+QPNEaUCFQmCsOP+IQlDm4Uhh/Kjq88Sg84x+1+3IkwPEoP4kaAH+mwR0ZAfhkd8sY/lonKouL4Tz3nSS9Os5aQL7IhQ5ynRl/oQh2iGFwU6OgageSB9KkL9KK8ZIiQCyOmzoZ+iiG9KY1S4UScZlw+6oNyc/FgK7ce0BP1TKfMxkEmtQXthcJKXsnDhg5IlzoCZKN96sJXCySP9shLX5Tcsa4Aw0NbkZGnXdMWZIAUT0atI5i58NznPjd1dQw6UR3pgkp/Qjex8cuWR/IrTmcy1YK6jTwpHMqg0HHDwx/F0ejUyaUIrh4cqxHqisIxHZ1zuiVjAxoBjZN9jMLHecmNPOzj+aikR9qck7zEURji4h/LRIXjf9ZZZ4U8yLMWxOkiI8YD+XWxwK3bIGRGH4TjPHHxV0eO9Yif0tP5zlBY0pBc3EXgZpPRQB5kRE/IRP2wojrxQXLgTxjVI/6SG1QONo6zaaquSCu+S+C8zgGjrt///vepqwXSBOpTbY+NesWwcOFVuhhYjIvCEZc7ATo+s0vwx82FlDJiLDUo4NkmMjPiQjcayQEyvexlLwvHpMmSdVnIj/ZFfDbaJH6gW2t0A+iQMPQ90iNcPIDAnztC/DHyikcZkVHtAN2RDhcVpUO5CKMLhiAdyigIv2DBgtTVFsmtfEiP8OTFOfQGlAt9Ix9hMZqE4f0CKB3OUweEoc5KGXFmNmgglJc2U5VY7ZvKquZUJR7Ml3sVMltphHmedGJG+z0NTVVCx8OGDQuGNX5x1B0wpW/mzJmhv3z/+99PfVuM/r/+9a9gwHUXVgqM9Vve8paw6DLwQoSFnctZf5Wwt912W/KFL3wh+ec//xncv/vd74LBYurRvHnzQv13BM9Q//a3vyUzZswIxy9+8YuDP+XiaznWg+U/UZXCBfLwww9PXve616U+XQP52DDIepHV5XmetTCefAa37bbbpj6mXDxJvnbIeJ5xxhlh9HL33Xd36wR0YJ7pYYcdFgxFtr8wUmROIka0IzB6z3ve81oHK9w+//vf/26dy9gRGG+MM3GJR1rEk5sRp4xhR2DgzjzzzDB6jGGhdYz7H/7wh9SnfCgDOqnWfPHXvva1yWmnnRYWPxY2ng2EjWft8OeZJkse41nXt+3GGNMotDGe0SC0atQiTWOM6W7a3LbzYJcHzNW8beetGF9NmMrge2Cey9x1112pT/fD3y95GTFhwoTUp3fC22Vu2y+44ILUx/R1PvGJTySHHHJI/meetTCePEO18awc1vPkwfvtt9+e+nQ/vDFlYYfevp7ntGnTwrP4r371q6mP6evwfqFL63nWwniyShNvAE1l2HjWjth4Tpo0Kej6P//5T3q2PkTdLsCfThn5oOOYP/7xj2GVJeZr8ivpns5+++0X2i1fKcXceuutyfe+972qL0nXGVk9A3dPrF7FXFxh49lA2HjWDhlP2vrAgQOTD37wg6GtimIdrlw/qCSs4PtylkpjvinyCf5++va3vz3McNh5551T37bEHwbUiqz85El+sf+zzz4bjOQJJ5wQ9nxyCT/4wQ/Cqv3HH398MmbMmOAHleip3LCl4seg3+uuuy58w6+5oz3aeDJPjHUJEeL9739/mMwr8Gf+F/PM4udphOUccb/1rW+1pkFY0hg8eHDrhFyl+cMf/jC4s2lRcL4qEDzjIM1SkNfXv/71YMBIizRRNv74iVIy4c9x9gpcLh0ZT8kFlPflL395yCsGGfCL9QxxXIHshNczQMqKX1b2rPFkQjXl1ORt9I0s5YLeiBvnQ97ZsuSFOpZsqkeg89AJHn300eTee+8NfpD9jDLr7gjmizJHE/jihpFisTUcOoP/7FPnfE++evXqYNjpkzGkzZc4+rwTQ4Zf/EVVufDVU5546Ib8Kau+EhOM5hklf+UrXwluJrizlifPzLOgN8AQ83VQNq1Kib8iA339lK1DDDnzVpm2BnmMZ92+bacz0ikwWHSaGBo1jRsB6YwCN/50LuKwYQzwo7OTJp2VNDH8xMXAcZ5zcVqC85wTuJVWjAylwOhgHCgDBktIJgwPx8gMyJAtZ7VQHiCdsUlHMZQD2RUHfVHWUuUmPpORyzGClJm6QScckxZpKi/0FMuEjJxnE4SVHMj0yU9+MhxLx6oH9kpLskOcJsdCx8hFvaGDGM4zWTqGTwH56kTwso7Ox6ZOiZEC3PrcEjBmoPPKX2Hwj8PjxgBlOzvzaJUWX+tkl6MT+qY7hvRJk6+C9NkkE+zZlDfnATd61DleogHxrrjiitbw7JcsWRLOY+gUHzjGTwZK8HkpI3vBl0of/vCHU9dWKDsbFx0+rUUW8pdupUvVgWQCwsVuwhIGefg8k41jLn7FDDK37WvWrEld+ajbPE+NgugY2Y5JB1Rn0OgAGMnhJg7xqWz2+NE4SYe4HPOsReGAvGIjA7hJQ/njppOSBleVeMiPX1YWRlqEVx5AGgpH/riVPnv8qg1pYgzYKA+gP8qMbNIlcIzxkC6Qn2OMEGWi3IL0KAsNU+ErgTikKUPFXjpADtUPeUhG/BSHc1z9OZ81nuie8/jjVhpKk01GWiAPYdioz3Lge2cZnte//vXBTx0T+F6azk3HZLSkW1PQqmEiNkhshCcekB6dGkNXzq1mRyAPhp9v5DnmSx4MEcfky6gKY8KjAX0rTlies2JcGHnqokH5mCwuN3t0zR4Dx5502CM/I7qscapkYRBk1CYwiugKWdETebHhh77wQ07crI9AXPzZ48f3+sjMnrAywtWmrpPkacw0/vh2WtD46RR0hhg6hDqHjFKMOohuGUkDSEfHgts4OqqgY2JwiKf8S0FY4hI2NixUEhtwLnZ3lF5XIB9kYUNuQK/oAX3F+aIXyh3LDJQbOUkLiE8ZyzUyxSBf8kf3bKRPPsjJOdU/e9WzLlId6YpzqiO1A9UX6Uj2bBkJQ/pshCkHbkU16il1u06H1AIVbHRajBQdXLfSpMHokHCc55h4hJOhIA/c1SRryOKFSzrSMd/QayTMRYM4yEs8Ph0lXfzYxwuZFKOSJekoP4addRCQgfwAw4ksMnyUQ7rGT27koVyqC2SMt1pS80nygkau0Y6gsVNwOrc6Bm51Ao1g8Ac6jToex4TFYChNOqFGKoSh48YsXLgwjGAEnUrhicsm8Iv3hEMO0pQMnMOtNAA3HVVpyjhVG9Jlk8wyUhjLuNzIybNe5OG4FOiCuNnRW7mQPhsyqG4AXaEf/NhzG636LAZvl0HpEacjOM8jErWdGNyqg47KHkOHy94Sq0PTcensdFgZPfyIQxhGeLqtpSODHgXI2IIMggxtKfisudT37OSPcWOLIS/8ZDg0UgZG1RyzKR7hcDP6JCyjNWCUmV2dSflpNSLKXMz4s24o/zKK4S+6xUCX5BX/HYI9frHxk9zkKf3jRpa435ZLvNJ9Xp4ziae7KbykoJD8rKkaXHjhheEtIUN4Gi8befAAnJWc77jjjrCncdNp6fS4CcMf7uI4dAQ6phYXoKOz59kKHZQwxCceBpXjuJNSmbh5uwoonLxYdIAOiPHQOeCWizikTVjOx3mTLzKRD+UgjRNPPDGkwTn+FEgcypYHpnTw4qDYsyLkopyCPN797neHPNEtb2eRGVnYIzdh8Ccux5xji9PSxUR6Yov56U9/Gt74HnjggalPy6INhCNN8kZf1BN60osOwiAf+SAL6aMjdCc5CUN9sECH6ko6VD1qTzrEIxxloq44h5s0gPTUdlRnxAH+lskLDTrsl7/85eAHdEY6Junsttturc9EWRmdtoxsnMfNmgM//vGPg3GhQ7PyEMYQ48WUI16S8sIIQ8CIinUjgHS51WRkSnrvfOc7g6z4szgH8nAxYFGOXXbZJdx+Z3WOUSEuebLtueeeQYcYfZ6Z4vfxj3887PklhmTjBS5lIm+MJceUhRdTHGPoeRZIHNLnZS/poBc+KmBPOvvss0/QEboAjmXoNm3aFF4sHnPMMSEc0G54DsqjtRiVARlIQxv6vOGGG4JhJF+gr6FvdCn9Iy/6J2+lg0yMZJGbuuBtOnVBmjHIhI71t1L+UEobjvUcoz5NOxJt3rZjdHi4W8237VQMCjGVQaenE/XmqUrZGQ49BU1VwljR6XgTzPO/7oTniFxYWCItGs8k119/fXL66aeHi0Jny+Zh7DDCukjwwolRYLy2Zin41QbxMHL8VRQ3xxhwRr+sM5o1fsVgihKDCJafE6zvyrJ4rHNbjixZMFoYNY14uwr1T3l4IYi+oMtTlWphPB988MFwJTOV0QjGU7fNPQ0ZTybJz549O9zC1XuSfBZGQUOHDg1zJLMw4mNKFSO1ng4j2Fe96lWpays8J2Wkn2eSPMvj8ZVitVZnow1j4LkwCBvPBqIRjGdPJTaexkCPnOdpjDGNSN0myRtjTCNR89t23riW8xsA0xaWpONFAW8Uewp8Xsebbt5k9mZ4O89t+9e+9rXUx/R1+LKtS0vS1cJ4PvbYYzaeOfBvOGpH9jccLGgRU+xuqVw/yBO2oxkp/IyNdsCUplpSSkbR2XlgalBHUx1jXefRU0zesMV0jdHs0j+M+EYc43nJJZekPl0D48mk5+6eBtIbsfGsHTKedAY+l2R03xPWnMXoMCpm3qagL5577rnJe97zntCfRCnDITo7XwuY+sOdJh8DZP+ayjQlfgLHlKzuhvUC+Plf/OIzj/FEya1Mnz690NyYUlfX6d+/f+GZZ55JXaYSmo1mYejQoamrZ9BsNAvTpk1LXb2X5hFn4fTTTy/ss88+hW9+85uFzZs3p2eqQ7OBSI/Kh35y/vnnFw499NDUpyWdpqamwu233576tID/mjVrUleLe9GiRamrPjQbx/SoPUcddVRh1qxZqatQOO+88wqjR48uLFu2LPWpH8Xq4oYbbijstddehRtvvDH1KRTGjx9fuPzyy1NXe5qNZmHw4MGpq4W6v23XZ14x+HHF1WdrgvltfGHBJjfh5Abi4NZnYkorm4cWZBCE6QjlxR5In3ziVWWEZFLYrEzVJpaBvIrlU0wHUEx+4mfTZOsI6SPeKoU40lktQEbVTVZHfI2z6667hmddWm+WNsLXN4J4sbsj+JRRSDeVwN0Zix4zD3LVqlXBj7mRfIWlr2AE9apPGYEvbLJf0JRLtl90RFxXfMmjPpKFZfW4cxJM9D/ppJOSgw46KPVpgfjoDRlIpxJZSoHus1u2LTNhn2l35dZtKepqPFEWjSrbqbWgAp9VUVhBh+bWlYnWFBQ3DQU/LbvFLRdubm2ARkVa2Y6pdMkbfy1uwHExJeIXv6whPT4N0wIPApmYDI4MKhvlwR13qGpC+gIZVbasIaVsbPhLFzR6wrDF5ZY+kF/fD3cEYSgj6fCJHMfEjdPkXCyTdC394Y7jsFe9Ko4afpwW+ziN2C0IR2fkFhLZOJYOgK9mWDMzhvO0QUFdk04ssy4y5FmsLWMEmkeR4VjlZS/joHKprCqf4JaSl1nQPLgpa4EN0kRu5CFN2h35kfbIkSODP37No7BwHvBjqTnk4CswtVXcLMoso0g4LWxMHsRHLspC2Lj9CSb7x/9Yf/zxx8PLmGLQn1mSTmufkhY6JV82IJ9i+uO83NQLYfCTLhSfPLLw9RRfl3WFuk5VojA05Cwoj4qmQ8YFRaFys6eDYxjlR3gWEBAoXWnQobOVyvn4iq1KIjyNJ5aVfEhLkBZu0o0bPB0Mo0oapEc4FlfATceNO2y1IA8aD5vKSDnIC9nwFzR2ZKFxcZ5wyElDhNjA0/g4xxanUQrSZRPkjVsdlI5LnriRUxc/ZJDcukDJj9Vy+DRQ+au+JCeL2BJO4RUue+HFn3rhIkCePIOLZS0FcZSulqTDrXpEXvTDnrYXG1tkoo3wGaV0rREabYHw+CktPsekHuJ211Von5RVeiN/8kUuPtWMQU7O8ywP3VBOLsyMzBQfv3333bdNOrR5wI8t7idQyapKamts5IUc6Ac7weeYtBn6Pf7YCfRHHMIiD18KEZ56UJ+lDumDsgFstaBuI086JoUp1YBRgBpVjDokjS+Oq7BSnF5yxZ8DZpVGJ0bhSoe0UbLSLpa/oDKpOBqVGg8QR+mRDsjNuY7SzAvpaxPkQ4emocUjU3SOfrLh8Y9XEKfx6uLUFeKRCA2ZPNAdusZNwwftaeiEwc15ZCz2gpFOin4Jg4zIrzjsiUceAnce3SML+qIcsX5iKJ/+f0P+5IMM5K84uAmHAWBPu0HHahPUkUax1UR1jFwgN3lipKUT7QX9AhlVB9QZ8mqVJYUv53PbSoyn8tPdGsfojjrAT/lS/4BbbQnYc+fHeZW1XtTNeFJIGiQVJKWw0bBoRLpq4GYD/DlWh0Y5uImHsthjEKV04suwsZfCBVd6jYpA+ek4fpuZhfRpYHQGOi55A42LylZ56OC4QTJVG9IlHxkTgXzaBDqg3HFDLAadnnRjA1QJatDUhfKRHtAxaSMDdxPZeokhLmF1rDSEzgk6me5Q4vJRHo2e8OfCp7qGpqamsAJQFqVPPSs9ykXbpYykgd5Jm9tgySs9a4RMGC4Mau+0E9JRmTiO607w/boMD48VSq12jmFj1MoWjyjJCz/aKCAzZUdGLawR6wJ/+hmykObw4cODP/ojHV0MkBs3F1ilQxzKEusVWHSDFYoEMxn4Pr0Y5I+uNKoEykA7QqcYRkCP0hv2QBdpjHls0DnGn3SRtRQ8tunqt/JtlqRjYna1l6SjYfNAngUDUBIKYSUT9qytyYo2CxYsCMrhas4SXVQiSmKaDivFsBSVltUiDg+jWTqLhsYxG2FIn0omLabU4BbEpyGQN2GIS3rkQVw1bkFFEoe0NS8MP+KzeAOrRbEhL/6Eo7OQBulRucjQkaHoiPXr14dlssaPH5/6bAWdqGyUBZlwo28aDDLQeNhocDRG6YO4LN1F+akTyoibBkdTQHfM1WOUwvmY2267LSymwJQOQXzCsZEPOqHMpE9ekgc94UcYOh/nkEmy4kavV199dWgTyIEfz8+Qj3SQH4MV65R84+XLpBctbcbFkrqhfkkHli5dGmSh3R122GGtzz6RgzgqD3rFjzTRo/zJnz11zAcD5MVG+sThhQmdmDITjzUKaGekTRjiom+1JeTmmHLwvJG7KAwOS9Fh/H7xi1+E8rFCO89T+fcOt9p8i822/fbbhz3yHHnkkaGdszgHv/3mHNNvOM8yfCzxxwpF7LUkG2Fpbyzdx9KBhGPa0R577BEeXfASi8HIl770pRBe6bD6EnuMPXIxzZHno6wZwLRHdAcsc8gKTzLMgjpAb+iDvdoN+sYGoBvaNwaUtkJbQ9+ki77QqT7YUDps6Jy46Bh9c47wMfyQjrKpvdxyyy3heXPuJelqMc8TpbMStakMOjxXXxpIT6HSeZ6MwrLz/XoCmudJ+2Si/NFHH93tH3JwUZg3b174F1c8/5DRMe0AI1pq9CaYRM/auRq5cvuMwdVsgo4gbYwMcZnITr4s6MOLH9wYNQxxZ2CQ+PHbsGHDUp+WkShtAQMWz2EtF1aU4sLDRaMarFy5MlzcWBxdVGWSPJNcGUJXAxvP/DSC8WQEkHfkXUviL4zoFKxgVeuvdzqD57wYnDzrXfYW+MOC/hTQndCGeZkZ0yONp55LmMpoBOPZU8l+nmlMHuNZ13mexhjTKNh4GmNMDmpuPHkjx0Nrb5VtPOzniUqxc9218eKArdi53rQ1Sjm8VW+jPVRKTZ958uaNNRP5qZWpDP+Go3b4Nxwmy1FHHZV87nOfa53XmqXuL4x4IM+0Jwwo35Ka8mG+JPUxderU1Kf7mT59epgTqQnYvZV58+aFqUG9/SJgug6zgZgVwkwAplSVou7Gk6HwNddcEyY+M7HWlA9/c+R2opy5dfWCuX7AfMDeTKOUw1QHPqDggxn9Z74YdTeexhjTCHiqkjHGVIl2xjMaiBpjjCmBR57GGJMDG09jjMmBjacxxuTAxtMYY3Jg42mMMTloN8+T1af15zxjTHmwkvq1114bFu5lGcbeTGczblgp/4ADDgiLSPO5bl+grEnyNp7GVAar5fN/H35RgVHhb5PF6MwoxfSEsKXgdx3Lly9PrrzyymAr9CuMRqaY8USZrUyfPr1wyimnpC5jTGfcfffdhX79+hUWLlyY+vQdli1bVhgyZEjhmmuuSX0al2ajWRg8eHDqaqHdM89mv/TIGNMZEydODIvf8CO0vsZBBx0Uyn7aaaf1ybUr/MLImJxw+8rzzWJ/OO0r8PdR/rbKHz77GjaexuSE534846wH/Ftd8Dte/qbZGYRhubVagw7QRV/DxtOYnGzcuDH8W70e8I95gfHk//eMejkGGUn2OuZ3vWy1Bh2gi76GjacxvZT58+e3Gspzzz03HE+ZMiUYVd6CM/IsZ4Rq8mHjaUwvQ6PNLBplLl68uOTvJEz1sPE0pheAYdQok1t2foUiY4kx1cZC5meffXZyzjnnhHOmdth4GtMLOOuss4LRxCjuuOOOyYgRI8I2d+7c8DJpyJAhSf/+/cN5bt35tQTGFT9TG9p9YfTQQw8F5RtjOoZ/c/F3U/Z9mQsuuCC8MGLfqPg3HMZUmb44vzELz1j7Iu2Mp78wMqY89ttvv2SHHXZIXX0XHiOgi76GR57G5ITJ4fxff8WKFalP32PTpk1hYZR6fSzQnWzZsiVZv3598pOf/CRsNp7GdIELL7wwfN/eV6HsJ598cof/PG8UMJ68uJs8eXLYbDyN6QIsRTdgwIDk4IMPTmbOnJls3rw5PdPY8OZ/1KhRySOPPJJcfPHFqW9js91224Vl+DTybPe2nduQqVOnpj7GmHKYM2dOMmPGjLAY8qBBg1LfxoRb17333ju8fT7zzDNT38amrMWQbTyNyQ+3duvWrUtdjcnAgQP73IsyG09jjMmB53kaY0yVsPE0xpgctDOe0V28McaYEnjkaYwxObDxNMaYHNh4GmNMDmw8jTEmBzaexhiTAxtPY4zJgY2nMcbkwMbTGGNyYONpjDE5aGc8/YWRMcZ0jkeexhiTAxtPY4zJgY2nMcbkwMbTGGNyYONpjDE5sPE0xpgc2HgaY0wObDyNMSYH7YynJ8kbY0zneORpjDE5sPE0xpgc2HgaY0wObDyNMSYHNp7GGJMDG09jjMmBjacxxuSgjfHs169fsnbt2tRljDEGVq9enQwYMCB1tdBUyMyKHzhwYDJx4sRk+PDhyS677JL6GmNM32TlypXJhAkTkosuuij50Ic+lPoWMZ5Lly5N5syZk9x5552pjzG15dlnnw37bbbxUyTT89h9992TsWPHJieeeGLq00I742lMvbn++uuTxYsXJzNmzEh9jOn5+FJvup0NGzZ4TQXTy0iS/wMhV4r/IlhMpQAAAABJRU5ErkJggg==;" vertex="1" parent="1">
          <mxGeometry x="-70" y="36.29" width="287.14" height="163.71" as="geometry" />
        </mxCell>
        <mxCell id="70_-coMu-GgpPG_OgK7x-13" value="" style="edgeStyle=orthogonalEdgeStyle;rounded=0;orthogonalLoop=1;jettySize=auto;html=1;" edge="1" parent="1" source="70_-coMu-GgpPG_OgK7x-9" target="70_-coMu-GgpPG_OgK7x-5">
          <mxGeometry relative="1" as="geometry" />
        </mxCell>
        <mxCell id="70_-coMu-GgpPG_OgK7x-9" value="" style="shape=image;verticalLabelPosition=bottom;labelBackgroundColor=default;verticalAlign=top;aspect=fixed;imageAspect=0;image=data:image/png,iVBORw0KGgoAAAANSUhEUgAAATkAAADPCAYAAACOXaZBAAAAAXNSR0IArs4c6QAAAARnQU1BAACxjwv8YQUAAAAJcEhZcwAADsMAAA7DAcdvqGQAACNqSURBVHhe7Z17jB1VHcdPoVESK4WQIBC1kCjwD/QRARNAllWD0dKnUcHEFh+0oNhCSIPGyLYhURMpD42VZ4GIj6j0ISDEwGoVrKS2vGKkoqVKFDVaKmjQRK77OTvf9XR67+7dvXfn3nv2+0kmM+f9/H3nzJ25M9POO++82rZt24IxxuREX19fuOyyy8K0tWvX1j7/+c8X3sYYkwef+9znwubNm8O02hCFnzHGZMUZZ5wRDimOjTEmO2bMmGGRM8bkjUXOGJM1FjljTNZY5IwxWWORM8ZkjUXOGJM1FjljTNZY5IwxWWORM8ZkjUXOGJM1FjljTNZY5IwxWWORM8ZkjUXOGJM1FjljTNZY5IwxWWORM8ZkjUXOGJM1FjljTNZY5IwxWWORM8ZkjUXOGJM1FjljTNZY5IwxWWORM8ZkjUXOGJM1FjljTNZY5IwxWWORM8ZkjUXOGJM1FjljTNZY5IwxWWORM8ZkzZQTuRdffDE899xzhasaKI9yjTHVU5nIXX755eGiiy4qXAdy/fXXx/DJAoFJRWbu3LnF0bAATTa0+4477ihcB9ONAkid1q5dGzZv3lz4/J8f//jHI+NZbhdhpFu8eHEc10Ztq5e3yqzXV2m+7FPKYY3GlPqwmalFZSLHhGbylicgbiZmPWNqF5R7ww03xOMjjjgi7Nu3Lx7DueeeWxx1Btrf6TqUQTSoE/32xBNPFL7DME4I3OzZs8PChQvj2G3atCmG0RaEb+bMmWHZsmVhy5YtB5xQhMTmJz/5SeETwuOPPx6WLFkS80/9gfogYMoXt8QKYSQMCCOfemWq3uRdq9UKXzMVqPRydfny5eHOO+8sXMPgXrRoUeEaXvGVhZAJfeuttx50BpdAgtLhTlcYTG7KYI8fRkFcUJq0TK0K8ONYcEz6NDytJ/lST/wJT8OEDE11Vn1VB61k0rSqt44pny3Np+wWaV05bhaEAuHq6+srfP4PdbvuuuviWDJuq1atCtu2bYthpMO9evXqGEY84tMugbs85kDa9evXH+QPpLn66qtH8qUMBBRIR10IJ2zjxo2xPPyFxpz0ZupRqchxptUZWGDArAiEDF0wwXGffvrpYWBgILoFxoKblRn5Eo+zPasMhI6w448/PsZlz0b+qsOsWbPi/pxzzol7hIBVAf74cSyBIa8rrrgilkn+rAhZMag+lM2qR20pryYwSsLJl3KoA3low5895aUGSv4yaFYh1IlVKXUgD1ZcqVv1pQxWRuRLe0jXrNAhBuq3MoSl4rd///5Yb0BkUiGhHXPmzBkJp+8ZF8RPfgKhIm49CEvzJR/Vj7qQn6BM8k7rj8AhjPSRmXpUKnJMPgxBRszKpDwhmYz4C46ZyKeeemqc7GkYBo1wTps2LboRGIxBhkhcDIf82ZdXJnJTJ+KwDQ4OjqxS2EtgAOPSioE9dVd9EBOMjTwJg1RUiKu0xEGw8JNg4t8M1JFVFnVjo06pW5d6xHv44YdjWfQHYQh0O0GAaf+nP/3pwmcYRAWRp+9YWQnGq944jAfaS77MkxQEnjI52TCG9ClQJmlSkTRTi0pFDhAD/T6GQZaNW2d+rUi2bt0ahQzYa5WHgBAvNZh0JUAYq4zxQBoMiNURBkMZGIhgRYR4CI5VBmll3FrFpWlptyAfrQDHS7mNZbfKrNeWiZZZD/JjVYaIHXnkkYXvMJxsNK4aa05s1EcngIlAHrSHeZC2G5gHCB9jwjgA7WW+pEJrph6VixyTXysc9hKwFAwBg2BSM1FlMExkjBf/egLZKhgteWMUrAbK+ZdFk7ogWKThchAhI126kmiVtMxm8lQcXa43aksrsGqSeJTFBhgnxpAVJis96rFu3boYRjpEiLEnjLyagfj0Mavlem2hHqxWqRPlcZLUCVFlak7xs4OZOlQuchghRsCE5aybrowEkxgDYBVQFkHO1vgTXk8gWwHjYBVCnainxFiwSiKOwGAwLvlhZKTDra0Z0hWf0otyHZqFui1YsGCkf7UybhVEif5HwMpjx4oRcRVqB+3jkpax40TARlr6rp5IlqEPyLfezRDEi7kk0pUs5SGKaZn40y9m6jC92FcKkw+DYNLWg4mIYGCYv/vd7wrfYfDn8gghLBtZI4iHcXJTIl0FKD0GRJ0wIAx479690bAwQOoggWDVhlFhMMShnsQhH4xLl0kIDHmxchhrBUVaxIDVBqLNRh1YwU1U4IDyWT09+eSTMR/cnBjYxqqThIp0El1+O+R3LepGndVWwQoKQeFykr4gDukpq56Q6bdDiRbtpxz6jvTUgbLJkzI5Zp9CGON2wgknjJw0KZM9+Wp8BPlShso0U4NptYoeGsK4NPEA4UCwgMkngxBMeib8PffcM3JjQSCQ+hEfSC/jVf4yUE1yysMtY1fZlCFRwjgIkyGQFjfpKIM6YczkDZRHGiCcMkijMonHMfmzV1wZs+ovEVX9cZOf+kv1IY38YSx3o7YovBGqT4qEo14Yeaotaltabj3Uh2ldqXuK8q0XBuovII7ubjcqkzqpXmZq8M53vrM6kRsPTGiEDEEpT0hWZNwl3LVrV+FTDRgRIld1ucaYiYPIVf6b3FhwGYTAcZZOBQ7h47JEqyljjGmGrl3J6TIkRZcs9cKqgEsdXXIaY7qfrr1cNcaYdtCVl6vGGNNOLHLGmKyxyBljssYiZ4zJGoucMSZrLHLGmKyxyBljssYiZ4zJGoucMSZrLHLGmKyxyBljsqYnRI4/xpth0veqcZy6jTEH0zGRwzh5i6wou1PKb6EdC72QUft2Qj2pD++XS8Gf10CxlcNw86ZbvXEXN3mwkQ4Rl1svviQf4pdfUkkcQdx6L7FMUdkp9Av5l9EYsBe8cZdyjOlVOrqS45VJMtJUkGS8ZUPEjzAMl+M0rcQFwdCxREIfS8F48W8FyudV4OXVJW7eSssbi8uv6QbegcdrmqgDb7DVq7upH2lJh5sXgtIeyiBNvc8Ikgdtevnllw9wI4BpvSRW2gPHvHq8XH/Qa8YFeeJO0xvTa3RU5DB6DB7Yp68H5/XkGJeMEcPnuwq82hrDJ1yioU/d4Y9RsvHSTeISD6PmjVIy8FbgRZ713imnV24jrOUP7FAXCQV1ox3pMXlyjIAilLRZ+dV7lTdihP+MGTNG3ORBH6QnBvVDCnER0zKIP9+wIA1QB74zwfcsjOllOv6bHIaVruIA0cJYMXqJHKsUBAAwZsQEUUM8EEjCER/F7wQIDwJSXslRR1ZsZXFJ60o4AqO3IUsUy9BXCFIqPhJF0o/WftLSp+yJl8bVCYJyiUN/MjaIcKsnBmM6ScdFjpUWBqXVD0aG8eHWSg34tgLxcCOCXO5hlMRhj4Dos3NAPI4xWPYYKsetInHA+HVMvgiPVlFafUm8EWT8iAsSdjbqTFryk0gRF9EhX7VfIIJcxi5ZsqTwGV4RI5Lkp7KBtMqDvVZ7xFc/qY7yV3n0L3nhpr7G9CqHDgxRHFfKK6+8Eo365JNPjhsGJTfGhlEigC+88EI0Tvy49EIEiIMw4D7mmGPCBz/4wehWWvbEe8973hN+/etfx0/pYczEVZyJItEgL5AwUEeJycqVK2NbOFY8wmgL/sR94IEHYpupI/7Annj4HXbYYWH79u3hqquuiseC9G9/+9tjvqRP+wU/jhWfPpbwkTd74rCRD27SkYf8OaZ+hOOmv4iX1sGYXuGuu+7y68+NMfni158bY7LHImeMyZqOXq7yOxo3BPgdihsH/PbT7fA7m+7q8mM9bt19xO/2228f+eI/Nxz4bQv4IZ/2ctMEP9zE54aBHtXgtzBjTPvgcpXnxzrGkFEXR7Xaxo0ba/v27asNDg5GN3vcmzZtqg0JQgzHb2BgYCScMNy7du2Kcfbs2RPDOMZf7naiepL36tWrC99adFNuShoOy5cvj2nVFurPMWhvjGkf/f39tY5errJy0b8SuJPKyoaVDmi/bt26eMcQN+E8zkB8hePmuTTi8IgJdwtZKZUfjG0X1JM7lqzm9NweUBZhgnoQT/9EELqryQqQevOMn9pvjGk/HRU5hGhoBRMNf+7cuYXvMAgaIAg81sCm43JY+nwcIByIC0IzGSDOM2fOHMlfwsomqM/QSi0+vgKImurNPo2fpjPGtJeOiRyGzioOEA0EC2OXGEgQUspiUE8cWD1J9CZD5Kgz+VJf/T2LOlOmUBv4DY69RFBt4jc80iPwQPtZzRlj2k/HHgbm4VKE6KabbgoPPvhgWLFiRXSzfec73wlnnHFGfOh16LI6PpDKg60IA6QPswLH+BFHl7bkzyqKh2AJaxcIkm488NAv5fDAMf56YJY28UAv9aEttI02EIdLVC6x9cAvGw8G464n2saYieOHgScJVpMImjGms/hh4EnCAmdM92CRM8ZkjUXOGJM1FjljTNZY5IwxWWORM8ZkjUXOGJM1FjljTNZY5IwxWWORM8ZkjUXOGJM1FjljTNZY5IwxWWORM8ZkjUXOGJM1FjljTNZY5IwxWWORM8ZkjUXOGJM1FjljTNZU+iGbhx56KDz66KOFyxgzXs4888zQ399fuMxY8CGbykTubW97W/jnP/8Zzj777MKnd+CTg3/729/iBMuJv//97/EbsIsXLy58Jh8+5/jhD384TJ8+vfAx4+GnP/1peP3rXx8ee+yxwseMRmUit3PnznD++eeHrVu3Fj69xfe///2we/fu8JnPfKbwyYNnnnkmrFu3Ltx9992Fz+TDR7jvv//+8LrXva7wMeNlwYIF4Qc/+EGYN29e4WMaUdknCZ999tlw1llnFS5jTCucfvrp4fHHHy9cZiwqEblGi8WXXnrpgG0i8CHnqinX9Ze//GVxlA9pG3XManai41SPVvNSfToxB0zv0NG7q3/605/Ct771rbBixYpwyy23hG9+85tFSPPce++9B4gogsPkn0yuvPLK4miYY489tjjKh7Vr1xZHw2Jy8803N2wnIvPHP/6xcDUP+WrM169fP26xokzG+8QTTyx8jDmYjoock/Piiy8OJ510UvjEJz4Rf7djsmvCM4kxNvkBRsHvEakRIpSEEx/Rw00crbAUluaF0SoP8sStMsbLt7/97biiQPzIg3xxs1c5lM+xVi8TLauT0KecmGgPfaZ2cfNCfaA2j0ewiM/vS319fTEP3BpnhZOv+kxlM9bACdKYRnT0crUMd42Y7PPnz49CBUz6K664Ih5jUNylRRRBKzaM40Mf+lCc9EoPEhTtgbz4wR1xZWWiPGVgE7n0VP7kdfnll8cf16kbbupCmdTt5ZdfPiBuN0M9ERU2jQXgT93prwsuuCCK2Vvf+tbYTsaPtnPykgCNBQJJHuQHWpldeOGFMYx+pN+uvvrqGE7Zv/nNb6JbKzj1qTH16OhKrgyTXcJV5phjjomTXashbaDLKMLrUY6HMYo0z1ZJ8yU/3Mcdd1w8TuvWjrImG+qOOLMhZilqF6TtYoXF+KX9MBaI4sDAQPzJgpOh+g3YM2aMPbD/7W9/O9J/M2bMiHtjRqOrRE7s2LEjTmSeq2OP8fAYis7cnM0xAFZkZTA+VgCsDFhNSMBGW02SnwyHtM1AndjKKz9WPeRBXcmTlRD1wJhZZXJppcuwXGBlTRsZE4SH/kz7dCzoK1bW11133ci40Ufkx8bY42YFp+csceNvzFhU8pwchr958+awZs2awudAMAYmM0jA4IUXXoiTmUtRTXhgtYBhKG6aFpHTHmRoxFE56V5haZ5KK8rPyZFOaYH0bPxOpEtr3PxG9+Uvf/mAPFVn0pfLqZrRnpNTHwm51W6FyT/t+zRdegzl5+TSctJjjYcoj4vCy/WZClxzzTXx9+uPfvSjhY9pRGXPyY1FOkGZyLjZuDxhk5/Q5C/7ywhSY1BeOi7vdZzmORakIZ425cFvU2PlqfipXzeiNgi50/aBjtUeta8crxH18oJU4KDcXwpvthwzdenKy1XB5OUH6F6hXFcuwYwxnaWr7q4aY0y76eqVnDHGtIpFzhiTNZXcXeXu3bZt2+IjAr3IrbfeGp566qlw/fXXh2nTphW+vc8TTzwRLr300vDII48UPpMPN5J4FMQ3CybOypUr46M2vrs6NpW9agmRw5C+9rWvFT69xde//vUoCNQ/J5HbtWtX+PjHPz6hf3lMlJkzZ4Y//OEP4fDDDy98zHhB3Hirj0VubCp7hMQ3HowxncK/yRU899xzxdHEIP2LL74Yt0aMFW6MaT8dETn+o8of2bW1E14meO6554aLLroobs2KCv9WGA/8gyN9bTjlUtZY+Yzn7RxVQ/0ZjzvuuCO61Ub6kd8jU4hHW9mzUic87XP1RZpfGeIQnziU1QzEpw85qWicSS8Iq/J17qb76cjl6pYtW8KyZcvijYhVq1YdIA6IBRMew2BjEmuVJENKBaUsKkz4TZs2hY0bN8Y3VRAPSEuYRIa8SVs2wEb+Zfh/6vHHHz+yAuQ3O0GZpKcsvcFV9SRM7ZPBgsqVsVNX1bkqqBt/u1KfsWec6MvVq1dHP1A4/XvEEUeE/fv3x/YTb+HChbFNtIPf34gzZ86cGL8M+RDOdsMNN8R5Qrq0HziWwNJHlEc6Nn58p0zd0MKPcSEO0Pf0n/qQsdIc0riZ/OnISg5hY+JxxsUgmJQSAyYqE1CiwSQmrsSACc0kJR5pMBCBG4NSfmwyCPyJqwmPQFEPjIJwYC9/hLgR5EsZ5Cfxwg/IAz8MkHbImFQX2oUfx7SND7sQtnfv3gPKpb3Lly+Px1UZJG2XQAjqwzhJaID6zp49Ox7PmjVrpO1AP//iF7+I6RA/2tFI5HSSIH/6kr5hPNJ+QOzoB+LRR4iwIO9UxBBK0qbgpk2aP4sWLYplSURN/nRE5Jjcg4ODccXFZJbRl0mNAwNgknM2Z3UB5ANa8eAu58PEx+/GG28cmdi4ERfySstmT3z5N0J1RsxSAweJmOrWCLWNMlUHypV4kB7jRERGq8tkgrggxIyTTjpA3dM+S9tKXd/0pjfFY8IUrx6EcTIgf8aPtGzqB+VNP9DXrAwRQfqfOjCHOOkRjzv4jAVjTB4cM5Y6iRCHMNxszCUzNejI5SoTmgnH5GMCazLj1hkcONZKgDMykxejKK82uJRisuOPcchgMEz8yBexkLCwwiAcN3s2QT0UL/UX1BV/XSZRL4xSsNLAj9UmdcUoaQPpGkE86sgqo5PQLuqBALCn3pxAtAoC2kqfql3s6VuQ+73vfW/sH/KgPxmPenfYia8TBX3ARj+xL0Nf0z+URR9TV9KqbnzmkDikpX6aT8RVfbUSRCwJM1OEock36QydOWuXXHJJ4Rpm6OxdGzKE2p49ewqfYb9du3ZFvyHhim62FNyE79u3L8ZtBHmn4WnebBwPrQRiGMeKq3hp/hs2bKitXLmy9uqrr46kF4pXTqO8lV8arvqD4oPaBvJP47abnTt31ubNm1e4hsukDmxp/dnK9cVdHr9yn0OaFg4//PDa0EmmcB2cP6T5qB6C8lQm+3JaUFq1h/C0PaTDXU7XKwydQGu33XZb4TKj0d/fX6vkYeC77rorbN++fVwPA3OW5rKUM3Kn8cPA7cMPA7eOHwZunq5+GJgfh7tB4IwxvU1HbjwYY0xVWOSMMVnTtZerxhjTDiq58cBjBz//+c8PeKC0l+BVS08++WR87iq3Vy1dcskl4dFHHy18Jh9etcRHaHzjYeLwqiUehfGNh7Gp7FVLiByvWuLLVb3I7bffHp5++ulw7bXXZiVyCPdll10WnyGrCh4U/tWvfuX3ybXApz71qfi/XYvc2PhVS8aY7PGNB2NM1nRE5HiV+Be/+MWwYcOGuLWT3//+9zFvPgStj0E3A68BHw/33XdfLEfQDsoerUz+TsZX97sV6kf9aRv87Gc/G+nHcr3Vfo1fGhfIizDiENaINA7zQnnwNy36s1mon/IgPzbqoDFhfEerh8mXjlyuMrH5wZuNJ+CZjDIsJiWTkS0VEuLgl7oJVzrBhH7f+94XvvCFL8TvoCpcaWU4uKkH+5RyvEaQL3EU781vfnPcA3XD6LjZonDVg3iUgZvyy/WRm/TUo0pRpGzqpzqw58l69aXQWFx11VUxDv83pZ7EO+WUU2IYG/GIw74e6hPiAGnJAzf1YJNokR+QF/2kfin3G3GZV9SbOMTHTZ7lNI3qZfKiIys5DIYzNROSyYjQaQIyWZnYGACTEMEiLhMTfyYrQkYY6VNxIRw3xkI4+ZI/x+RLWq3Y8KMeMgTBcRqvHuRF3sSToar+QL0I37NnT6wTqBzi48dG+bSFY/wxRtKCjJV2y4AnG/qNTVBf6k0d1U6gPorHnpsygv6mPRIe0jOG9SC8nuDgVhryoh+UH/1CGP2r/OlH4gHHxFEe1I94tEF1U57z58+PaUzedGQlx2S799574x4xYRLWQ0aHARCHySkBAdITjh+TmLdNKC/iykBJL2MSGK0ERwbGHrcMqhHkq3iUnXL//ffHsEaGLai72kFZlK22cUy7OJaRdgKEgP/rsrpK28mJJO0ztQPkTrdGEIYoSdw1T+g/+kfHjJP6iI3yJXTaNE8YZ+UpYSYMP8LYyJPyKIM0Jm8qW8mlQofwMGmZfDJiGQ6TUGhCEsbGZGbycpzCigpD5PEEwhAh8lU88kjL0sTGUIgjN2GUIQOqB3HJD5GmTDbKE7xmiDriRx7EJV+2RkjwSJeKX9WoH7SnDap7KjrUj7EhHmH0u9qHsBCulzGQLu2fFPpZ+Sh/jjVuHFOexgnIm7I4wSicfTpvGGf82JhrxFH+iJ36mnid6mtTHYcODFEcTxq87eL5558P5513XnSfeOKJIyspJjAT8A1veEM0Bk1oJqZESRPy3//+d0yj+Mor5V3velec8MQjjtLu2LEj/OUvf4nvNpNBUgbhfAeUfMhX8XgGiWP8qT9+1J89fjI69tSLsigHZLwYFGWQhnqprsQjPgZG2tNOOy0cdthh4Z577onHhOEmPnvFbTd//vOfww9/+MP47jt46KGHYpuBPqL++NEGiYP6hI3xUrvoO4SH/li6dGmst9qUjhfvfPvkJz8ZXvva18Zw2k9f0WfEUf+qD4A6MG6UzV4nEPKlL9N5gx9uBI4xxB83aRlr8q03j3oJrhZOOOGEMHfu3MLHNII3IFXyMPBtt90Wf4TnYdpm4QzMpJSYdBI/DNw+/DBw6/hh4Oap7GFgGK+WchnoSwljTKt05O5qs1jkjDGt0tUiZ4wxrdK1l6vGGNMOKr3x8NWvfrXw6S1uueWWeIcxx1ct8doexqYquJvJ3Wy/amnirFixwq9aapLKXrWEyD322GPhpptuKnx6C3/Ipn3wO6s/ZNMaiBuPv1jkxqbSu6vGGNMJ/JucMSZrOrKS460VfFeVp9f5kn47IW9es07e43ndOvVpllZf485X37v5C+68yZn+q9eHjFf65XraUR5HfRmfsRgvKpcNyJ+8qBPw5XzqpPHiuFwOcQknLqg+7Z5rpjfoiMgxgRcuXBj/4sNvXUxSGT0Tkw03Wzox8ZdbaZROkPecOXPid1v5w77iKy8ZBHlhDDIE7YmH/2gGumXLluJoGOKSd2r4aV2BMIVTr27+puzy5cvj2KxatarwGYY28e8I+vbOO++Mfuxx4682syet2jsaaT9xDJTNBuRBXuRPPzO+1G/27NlxnPj7FnGUB31PPOpEXI5JSx6qc1pPkz8duVxF4JiATE6Jkc7MmoBMSIkJ/61k8mqSEpfJu3jx4rgXmuB9fX0xT4xh0aJFMYyy8KNcoAzEUG5Bmfjzt5lmkTFjTBgebrWHPfUiDCgXN1u3w91k+lBQZ+7qAX2pP8VzMwH/733ve7G9nLjoA/V9I4hDf2j8GTvGnzHBH1avXh3DxbJly2K96E+dKCiPOMwTxI86Mw6E4685pnyYR4RRjoUufzqykmPyDw4OxkmNmDSaaExo4hKOQRCfCa34hCFoXLIwYY888siRiYyR4MfElxBiGKm4IGjkpfyIh8GWV2pjQZnkQfq9e/dGP4Sc+lEeBkW4BLQXUD+pP4Xcs2bNindIcXPHmf2xxx4bwzhWn48GZdBfjAv9g0AhSKziECKNC+NLf5IvcYkHKoMw5kG5TLnZI6JamaZjrDJMvnTschUkUkx2TUiteED+TG6EQkbAlsLZHsPA8IB05M3kBwSSPDTJyRPjwk2+KltGh7/8mgGDpA4qHyR6OqZ+1Ftt73boC63aaAebxgo42Zx66qnRzSqdcTvzzDNjG+kHVlNajTWiPKZceqrPGC9AnIjHeILGlhMgdQD1NfEQL8Y7XYGSB/F1gtm6detBc8jkS6UPA/P9UmCicsnBpJRBMDGZoDIsjEYrAk1QzugYAmmY6FySIC4pxGdSCwSLfPDDoCSYCBPHlEcaDIV6IELEIw5QTvk5OfKSMSquVhjsjz766PCf//wnhiO0hNNeSPPu9KputOfk6GvaTl1pK/VHGNIxSMeNdklYFIe2l9tYfk5OcUlPeXITj7FlJS7B02pOY8fYUj5jk84TxpBwzRPyUJ8rDScz8qPuvSZ4fk6ueXhOjrPwpDMkbrWPfexjhas5hiZ4bc+ePYWrs2zYsKG2cuXK2quvvlr4jM7Qqq02dDleuLqXnTt31ubNm1e4qmFI3GpDIla4zEQYEu3a0MKhcJnR6O/vr3XkcrUZtALrRVjRdHqVZowZpiN3V5uBy4teFTnq3at1NyY3unYlZ4wx7cAiZ4zJmkruru7cuTMsWbIkPPvss4VPb3HzzTfHO3i8Kiqnt5Bwl/viiy+Ob4ipiqOOOip+j9ZvIZk4b3nLW+IHgubNm1f4mEZU9qolOPvss8M//vGPkS929RIIHF+Reve731345AFteuCBB8JHPvKRwmfyufHGG+M77F7zmtcUPmY8PPjgg/Hxmm3bthU+ZjQqFTl4+OGHwyOPPFK4jDHjhQeu+/v7C5cZi8pFzhhjqsQvzTTGZI9FzhiTNRY5Y0zWWOSMMVljkTPGZI1FzhiTNRY5Y0zWWOSMMVljkTPGZI1FzhiTNf5bl+k5du/eHa699tr4bQp9a6NXaGRu06dPj28VueCCC8KCBQsKX9Mq/u+q6Tn40tbSpUvD/Pnzw5o1a8Jxxx1XhIzOeKZ5s3GbiddsXq+88kp8JdnAwEB4//vfH770pS8VIaYVLHKmp/jvf/8bTjrppLiK0+cmc+P5558Pp512WvjGN74RDdS0hv+gb3oKPvfIym0sgeOThIsXL44bnyPkE4Rl8B8LfapyNCiDOPXKqIe+W9uIN77xjeHSSy8NP/rRjwof0yoWOdMzPP300+Gll14qXI3hQ95sfAxp48aNcS8R4lu9AhHDn+/oSswIZ8PNt2YRTOLxoew0Xj3IS/EAQVN8wtgQ19HyAFasTz31VOEyrWKRMz3FO97xjuKoeRAVraBYDeoXGkSHMD4ujaARh3A+KckxH7zWqhGhI54ELEX586FqIA0rPPxULh/E5jOVfX19Ix+6bgSXq6Z9WOTMlAVx0vdxOUZ8EDZWW+knJRE4xI+v+0u0GkF+bKQx3YFFzmQPosN3OhCeVKQQNVZY+CNq7FlpcanLtyhAaRA/8kEMR4PLVeITlzy1ylO6sdKb9mORM1mCwJxzzjkjx4gUv7VxyckX17ikXLRoUYwjf/12x6Xr+vXrY/j+/fvD3LlzYz4I1ODgYIwjyId0iCNICMmP9IDILVu2LNaD+KnQmsnHj5CYnuErX/lKeOaZZ+KnIbsRblIgbohZK/DbHp/BvO+++wofM1H8CInpKViN8cBst8JlbqsCB7RRq0fTOhY50zNwZ/Vf//pXuPvuuwuf/Ni+fXu8VD7//PMLH9Mqvlw1PQXf7r3wwgvjV+T5W9fRRx9dhPQ2+lvXNddcE6688srw2c9+tggxreC/dZme5K9//Wu8OYAo7Nu3r/DtbQ499ND4B/0PfOAD4ayzzip8TatY5IwxWeMbD8aY7LHIGWOyxiJnjMkai5wxJmsscsaYrLHIGWOyxiJnjMkai5wxJmsscsaYrLHIGWOyxiJnjMkai5wxJmsscsaYrLHIGWOyxiJnjMmaQ3bv3l0cGmNMPvAZyh07doRphxxySG3p0qWFtzHG5MF3v/vdsGbNmvA//+0xuE5DdJcAAAAASUVORK5CYII=;" vertex="1" parent="1">
          <mxGeometry x="270" y="280" width="250" height="165.34" as="geometry" />
        </mxCell>
        <mxCell id="70_-coMu-GgpPG_OgK7x-18" value="" style="edgeStyle=orthogonalEdgeStyle;rounded=0;orthogonalLoop=1;jettySize=auto;html=1;" edge="1" parent="1" source="70_-coMu-GgpPG_OgK7x-10" target="70_-coMu-GgpPG_OgK7x-8">
          <mxGeometry relative="1" as="geometry" />
        </mxCell>
        <mxCell id="70_-coMu-GgpPG_OgK7x-10" value="" style="shape=image;verticalLabelPosition=bottom;labelBackgroundColor=default;verticalAlign=top;aspect=fixed;imageAspect=0;image=data:image/png,iVBORw0KGgoAAAANSUhEUgAAAR8AAAC1CAYAAABmp/txAAAAAXNSR0IArs4c6QAAAARnQU1BAACxjwv8YQUAAAAJcEhZcwAADsMAAA7DAcdvqGQAABjxSURBVHhe7Z1pjBRFG8drjfoqnssnTUAEFZFE5VATIPFCohFBNEYSA4jgGU1EBI8YcDVBJSSgxEiiIgof1KioHzQKQVQ8iEFQDApyLAYRxGO9o0acd35FP0vRzrCzy3bXzvD/JZ3uqq6qrp7d5z9PV1c9UzdjxozCpEmTnBBC5MFHH33kRo0a5eq2bNlS6NKlS5IthBDZ07lzZ3dAciyEELki8RFCREHiI4SIgsRHCBEFiY8QIgoSHyFEFCQ+QogoSHyEEFGQ+AghoiDxEUJEQeIjhIiCxEcIEQWJjxAiChIfIUQUJD5CiChIfIQQUZD4CCGiIPERQkRB4iOEiILERwgRBYmPECIKEh8hRBQkPkKIKEh8hBBROKBQKCSHQgiRH/J8hBBRkPgIIaIg8RFCREHiI4SIgsRHCBEFiY8QIgoSHyFEFHIVn08++cRvaTZv3uxeeeWVJNU2qH/bbbclqfx5++233TXXXJOkhBAtkav4vPrqq+6+++5LUrtBfPbVcPv06eMuvfTSJLUnTz/99D6LW0v89NNPJYXV4L65TyHELjrcDOdSRlwqjadB2ZDjjz8+OdoNBv/OO+/4LTR+6tJGGruWnU9fw/pXqq6RPk8aAbT26EdaiMLr2jF7OwaOS13X+ipENdHhxnwwsPPOOy9J7eKyyy5zL7/8sj/GQ+LxCi+qb9++zZ4Uxke5NOTj9dgeqE9Z2qivr9/DGzv//PP9NTj/yCOP+PNm2Bh59+7dfXnO1dXV/UfQrH/szZujPuW4nvUjfESkHvfC3o45z8YxfbF2+WysXZg4cWLzvdCfUp6lEB2Sr776quj85ENDQ0NhxIgRSWo3S5cuLRx99NH/OTaKHk1h4cKF/rjY5UJjY6M/bmpqKsyaNcsfz5s3r1B89PLHac4999zmctSZMGHCHm2E1yuKTWHs2LFJquCPrc+rVq3y92DQjpUtiqPvG/0H2iXNHrgG9YG+hJ9DWJZ+ccz9AO2l09ZfyheFqPleaD/92QnREcHOqu5tF2M7fNPzGANFAfD7Sikap7v33nu9h/Xwww/7dvA2wsebc845JzlyfhzJPB8bV6IOdakTej6cLwqdP+Y6bGG7rcHasUdJS3MN85Bof+bMmc33gvdDfvqRToiOSO7iY4YcgvFgSJVQ/HZ3V199tXvmmWf8I1H4CFIJGCaPMhhqOcK+mIgABo7wFb1Fny41xtQWEIxwD+m2y41n9evXz49nwVFHHeX3QlQDuYrP6aefXvKb+d133/Xf6KUoVR5vp/j44YUIL6Q13gXjLYhJ8THGt1POqA3atr4xzlN8ZPKeE3VDsWgtYd1K+l/qWtwLnyl9KncvQnRUchWfESNGeAPBe8ADwugYRGUw+dZbb/Vl7PECUUEEMHjzPKiDt4PRmSiFnkk5uCbeQWNjoz+mHhvt4UFRP/TIyKN9NjwkEx/6RjvkM7DLnntgD7YvhV2DMmPHjnWffvqpT7OZ59Ja7L7oA+3Q1/S9CNFhyXPAGRgkLX5L+0HgolH7gVcbiDVs8JgyHDOoawO5NlhbNDy/Z6AXOB8OFIdwjrbsPG3YtRms5Rp2zEAY5UlThrI2aEw/aYO2LJ97YbM6IaTt3uwa1IOi6DbfA2Vok+vTJseGpa0P6TQD4PSTfqXvRYiOCnZWh/gcd9xxiRSJzp07u4ULFzZ7YEKI9gc7UxhVIUQUqu5Ve9ZMnTpVA7dC5EDd5s2bC926dUuSQgiRPf6xKzkWQohckfgIIaIg8RFCREHiI4SIgsRHCBEFve2qgOXLl7v58+e7jRs3JjmiljjooIPcmDFj3JVXXpnkiKzhbVcd0/A1r6U8K1ascAMHDvSLSc8888wkV9QS3377rf9yGTRokGtoaEhyRZZIfCqA1eIs1tQ/ZW3Dl8zIkSPl3eaE5vlUwDfffOO/EUNYmW5bKSrNL1Uuncfq+zTpVettCcnRmj6WK1tLnHHGGW7Tpk1Oy43yI3fPh4BcXG/EiBE+TegMPAv+wceOHevzOhJXXHGFu+GGG9yQIUOSnF19JpQF90E8HbsX7sFiKCMIS5cu9cfAfQNhL+bNm+fPWygNIif26dPH17W/BY95xGcmQBhlLYY1EJIkTBNQjTbLQdgSQLSIgRT2cdasWc3XJG0hTKxP1GXPvVG2liEG9r///uv3IluieD5EASRejsE/usE/OAbCHgO3mDkx4Z+xFIRTJaKiCQ9wL8QlMoMO+84qeR7hOI+RI0KUY+OY8ggOG94OZRAe0mb8IaQRnaampuY0QoHI8dmF0E+uQx8oR/t2LQuqD/SDPOsTfaAueTJI0d7kKj78o/ONanGQgX9ywCj41sUIMQ72/OOnDSkGaQFCZPBaEFHzIgzO8QsT7ENhNQGhHiIQGjP5wD1zv3w+fAZ4VcDbSIQghOsiZARXA0SbzxaBs8/U4NrUtz7Z9Tj++eef/TFQhj4Y9ncA6lg9IdqDXMUHY8UwMMC0gVjaxIc05Yn4F5u0+CAeeAd4BKEomIHyuMWe+zAoh2dCnVLCBAgK+XhTXMPq01YoCqRpj70RCkXYNiBMbFwb7Dz1w2kW1Lc2KROmId2uEPtCbuJjxsHYBBv/yKFx4uXwj46RIE58q1vM59ikByExfB55eMQJhQMsH7hHy2fP/ePZUH/48OFejNi4T7xC7p3PhPrUJbY15RFgExbgHAJHm/bYxXgZadoJRYLPz/pAu6Q5zzHijshRhz7xN7A+IUqcwxvlvILTi/YmtwFn/rnBjNXS4Tc25zAKvvkxDB4/KBdzIPryyy9348aNc5dcckmSsxv6ZvcT3gf5HGPkZuzsQyHlPGnqhW0YpdoyrE07ZgvLW3tG2C712NLtWpvpPkGpPtQiGnDOD83zqQDEB/HDUxG1jcQnP/zbLs1raJlyb7yEEG1Hkwxb4H//+5+faChqmy1btrjDDjtMXk+O1G3atKnQvXv3JCnSvPbaa27atGl+Y42XqD22bt3qrrvuOtezZ083Z86cJFdkiR/zkfi0DL+HzgD42rVrkxxRS3Tq1Mm/6WP9Xq0PqncUJD5CiChIfCrkySef9J7PunXrkhxRSxxyyCHe8+Fnk4jtI7JH4lMBixYtcvfcc4+bMmWKGzBgQJIragnGfG666SYfr2n27NlJrsgSiU8FEOGuf//+fsa1qF2KduDDavz4449JjsgSxEev2lvgzz//dL17905Su2AWsK2XYiNdbgEsSxNaA7OJ2WiPdttCa68pnOvRo4dfqqJ5b/nR4cTHlgKEhtdWI2wPSk0wRHBY+Eq/bGMWtPUz7C9jRUaYD6XS3D/iwxKTcOlDGvJszRaEZfZ2TSE6CrnOcCbUBIsWWb9V7tsZw0sbFsZezrPImnKzmy2IGBvLUwjwRb/79u3rF2Nyrwb5pLkH7p8037SkKQ98JqTtvinHNzH7sJxhi0FZdMq1uWZajFjkSh5tC9HRyNXz4ZucUBTEnOHbGQPBiDAQE5dwESTnLR84hyGRTx0z5KwpJUD0H+NmQwQMVoITugJBsr5x3xbOAiEFFm7yOSBeJiKkrZzB4lqgDcrxebBRnw0RZDyKVeehoHMd6vJ5E8Atj89JiNaQq/hgABgFRsIxBmWGifGRZ6FFOUZcbHU1aQTHHm8wLIwu/LbPilLiw6tZCw8SrgAvBfeLcNJ37hdsnyYUXwJ9IXJhPUQtXAiMIKXLGNYWn5cQHY0oYz4Yj8UgxnDwZhCl0EjMYM2wbYwFA6OsBRvLw7DS4lNOOML88Jj7pb88GnE/7733XvPApsXJoQxia8HTqM/G/SGw1KMNPCs2yiM8rEXic8IbIs88K8ogXrRJhMNyfRYiFnUbN24sMP6QB+nA5xgWeXg+GCaeDHu8CQwO7waBYW8igxHhHZHHHmMLA7W3N4TU4NFq2LBhSU7+mOiKbFFIjfzI/VV7eq4MBoXw8M3N2ARGZmUQF7692fOtzzGPFkBZ6nCO+iZMWVFu0DkvJDyiFsnV86lG8HyYaMjAsKht5PnkhyYZVsAxxxzj1qxZk6RErcJYW9euXSU8OSLPpwU++OADN3jwYDd9+nR31llnJbmiluC32idPnux/IPKBBx5IckWW+LVdGzZsKJxwwglJlijF4sWL/cB38bNKckQtcfDBB/upE+PHj09yRNZIfIQQUZD4VAhv0/B8bNKeqC2I4TNq1Ch32mmnJTkiayQ+FbB+/XrXq1cvd9VVV7l+/foluaKW+P777938+fPdxIkT/aRMkT0SnwpgHhEzhbU4s7ZZsmSJu+OOO9zHH3+c5IgsQXz0qr0FCBo/dOjQJLUbHsXSS0LaC9pk6URr2qa8HgvbDm80V65cqXg+ORJNfLIw2iwoNbsZI2fJBffAcpBwNfm+gojg+ttaMJaflCP8DKnHBtXy2Yr9m1zFxwwJjwHDqgZ27tyZHO0JBs6sZx7L2LOw0xZ1WpgNYvCwRs3um0c30ogL9SnHceixcJ42bbO1cORT3+IEIXjWdlifMvQlnS9ERyN3zwejZEGoreHCgACjWbZsWXMa48KYMSQzMrABQdqhDBt5aSNuT9LeD6vHEQaumY7nE8KaNMpRfvXq1d6b6datmz9HHQSI8+y5D/rPMeXZjxs3rtnD4vMi31aus9aNWD6sWOdNnMH6N8qwHow2heio5Co+GBciEoZ4wAjtORsvwwwGQ8V4MSQWkAL1Q4HhmGnxGCGLTbNagJkWH/pM37gm4mGCaSAWISY49I96TGjjviwv7DfnuC/ynnrqKb+nPT43+zxII0ocWzuG5fOZCNGRyTWMKkbR2NjojTUUkRC+4UNPgrIYm21pMH4MlMeRcm3uK2nx4XoYOX1jQxx59MITCt+K0R/SRBJkDgnigZdCHYvjA3wu1Lc9bdOWPWKZOJmHgzAj4HxOXCP0cLgG53lDx16Ijkrd+vXrCyeeeGKSzBa+vRnDsG9y4vAwLmLeA54ExkMexzxaUA5BwvAwcjwdPAkMOvQoSGOQ1GlP9hbPx8TQxAHII40wYPzcW1uxtox0WrQvWtWeH7xqZxJd0fnJh6LXkxwVCk1NTc3pVatW+TQbhOWA85AuH6atTHtTFL9C0bNIUpVD/4pCm6RENVC0iUJRfJKUyJL6+vpCrp5PNYLnM3r0aO+BidpGnk9+aJJhBfCDgcRcFrUNbxAZpJfw5Ic8nxZghjODxbyF4meTRe3x3Xff+THFG2+80U2aNCnJFVni13ZJfFpm+/bt/p8zq7dpIi62ql3B4vJD4iOEiILEpxUQxXDr1q1JStQSRDIcMGBAkhJ54MXnyy+/LJx00klJlkjz999/+9i+DDqfeuqpSa6oJZiQCTNmzHBDhgzxxyJbJD4VMHfuXPf666+7F198UW9Capg777zTrVu3TuvhcgLx0av2Fli0aJEfjGyL8JQaoLZZ0WnS+Rrczpdp06b5GekFxfPJDYlPCzDp7PDDD09Su+DbMfyGLDcBkfVZaRCVcO2aEYbkgFJlRHYceOCByZHIi9xXtRtZGlfadd6Xa6UXlRqhp2LHFgKELcRi7Ji4UJ40/WTdWNgWfaUceWG+ELVGruJjngDGGH7Ltze2+rs9wA0v5YrjonM/bCaq5NnvyVseAkL8ojCfjTwWibKA1gKrkU8bLK7lvB4BRC2T+2MX3/i8XZgwYYJPW1gKe3TBEwA8AMqagXPeHndMuMjDuNmHbQD51GOPQe8LpbwfVtgjHGyEwuA69Jl+sMKeNCAwzI6mb2kPDJGBULwItaGV62J/IPfHLgyM0BcGRsyaGozVDNawNOUJxWEiki4HhK4wEWBDBCycRanyraHco1cIgsF1uB9CfdAXME9n3rx5PhzI3iB0CMKVpVcoREchV/HBIBERHjPwAjBWjs0DMOEA8wbADNmwc1Y2PG957NOeRltJiw/9DeMGmcitWrXKX5PziFEY+hQvjnJWF2/IPByOCSLGOTwp+k5efX29Py9ELVK3bt26Qs+ePZNktvDoEQYT45jHLIyOPIyRxw6+/cGChiE2lCGNkRLhjz0eAm3g5WC0PGZh8OzJpxzihtfB+bZASA3Ga4YPH57kiFpFITXyw08yzFN80pjg2N4I8xEWBIV0qTJ7OwbSEOa1BsRnzJgxXuxEbSPxyY/okwxNENLCEOZbIPRyZaDcMZBO57WGQw891H399ddJStQqeNdHHnmkhCdHono+1cAbb7zhx2rwwAYNGpTkilqCL5frr7/ef9E9+uijSa7IkuiPXdXCY4895seNCCwmag+8W8Ye+ZLp1KlTkiuyROIjhIiCFpYKIaIhz6cCFixY4JdsfPnll0lO9vzzzz9lFzvy9+INHJsQ1YgeuypgyZIlbvLkye6uu+7KNdrdyJEj/RSDgQMH+vQvv/zi38bA8uXL3UMPPeSmT5/uLrjgAp8nRDUh8akABiKJYDhx4sQkJx+YIDl16lS/Z66SrX7nV16BSZOrV6/2v+eu18Oi2vBjPlo5vXd+++23FsOnWggMO7YFsLYMxPIMlmCw3KJSmLFtC2pt8SxLNiz8pxDVSK4DzhhPCKE12kJo2KXY1/MhLS0q5R4QB2vPJjUiRowTcS3CYwDeC+VYIEsZvJqWQKgQmoaGBr+xzKTSvgvRkclVfCxujcGSBYyULVwEinGZJwF2zspigBhkup7B6nErS1uUsXR4vhLwDPcmQIQGCZde0DcWjiI4jNlwLVs4yjXpC5PZSFN2byxevNh99tlnrkePHntsy5YtaxY0IaqVqK/aLd4O66fwBuyRom/fvv6xBM8A8WB2MSLAMQKGR4ERU4Y99Up5A9SjffZs9vjSWnbu3JkcVQYeHgJjHhBCCaTpJ/swXY4VK1Z4ASq1lRJdIaqJDjHPB0O1cBMYI3s8CjyHvYmFeQ4YcdoYERrapQwCQFsM0rYlymFLj15p8ErMGwoFhmOEyPpKvglTKe6++253//33+8HucJs9e7a/HyGqmQ4hPhZCwwi9gdA4014CQoKRlzJgHnXCRxMMP/RCWsPePB8LCYtHZmNaXIfwH0A/8LoY7yEoGv1loJh0JX2h35TFG2TjWIhaoG7t2rWFk08+OUlmC49RZnAYJeKBxzNu3DjvpbARO4dyjJsgNngreAo8lplBY7xEDLTIhuQjNKy/AgSB+ogAdRl34bqkuS4iwfmWxlyAR0Lqzpw5M8nJBz6D8FU7wgO8aqc/t99+u2tsbHQvvfSSXrWLqoNX7SyWLMSkaECFhoaGJLWLoneQHP2XpqamQvGRzNerlKKgJUetZ8GCBYWLL764sGPHjiQnH4riWHjrrbeS1K7PadWqVf6YvgwdOrQwf/58nxai2qivry/k6vmUwrwTPBGDgWT7tYc0pcq3BOUr8XLKgWdWNHSX5y+7cp88cpWCZR54cEwwFKIa8TOcv/jii0KvXr2SLFEOxGDbtm1JKi7HHntsWWESohqQ+Ij/UHysdc8//7wPhs+YUrVT9PCTo/Iwg50xtdGjRyc5ImskPmIPXnjhBT9F4aKLLvLG2Lt37+TMnlRi0CGtKZ9V2XKsXLnS74lgyEA+Lyv69+/v80R2SHxEM++//74bNmyYe/bZZ92FF16Y5O5fzJkzx82YMcOtWbPGRzcU2SHxEc0QumP8+PF+25+5+eab/dQFxXLOFsSnQ0wyFHEhgPqmTZv2e+GBW265xb355ptJSmSJxEf4SZhM8GxPbD2dbenZ6YwtQVsjG2TFKaec4rZv3+4H3kW2SHyE+/XXX70b3J4wD4mZ50xR4JhHGdbpkQYTI4QPyA+Xp3CetJVnrhZpq2flyW9vmMbw+++/JymRFRIfkQm8OWLDkNkzcZRj83hCEBDWxiEoeEnsiVTAnuUlYJELqM8UABMq6qW9KlEdSHxELuAFIRIITdpbMQ8HL8jOMYPdYh5Rjz2z3lnTRzmEzETHhEhUFwqjKnKBRcSIR/fu3ZOc3eAZWVgVFhJXAh4P7VEX4RLVhzwfkRl4JxaJAJHgkYmf+yEaga21Ix8vBwGx8CRhPRsID8tznnEkHtE4r1jW1Und559/XmCEX+y/PPfcc14QmGAonOvatav78MMPXZcuXZIc0d5ono8QIhoSH+HntvAbYMK5HTt2+Nfs8nqyR+Ij/LjJhg0b/Jqm/R1mN+9L7CdRORIf4XnwwQf9z0LvzxCkjc+A8LUieyQ+wsOvYhxxxBF+gencuXPdX3/9lZypfX744Qc/2H722We7a6+9tlVRMkXb0dsusQdPPPGEe/zxx32cG3vdXesgPsQvmjJlihs8eHCSK7LEh9QoPucXygWNEvsv/FxQ+ieNahV+BVbki8RHCBEFzfMRQkRD4iOEiILERwgRBYmPECIKEh8hRBQkPkKIKEh8hBBRUCRDIUQU5PkIIaIg8RFCREHiI4SIgsRHCBEFiY8QIgoSHyFEFCQ+QogoSHyEEFGQ+AghoqAZzkKIKMjzEUJEQeIjhIiCxEcIEQWJjxAiChIfIUQUJD5CiChIfIQQUZD4CCGioEmGQogoyPMRQkRB4iOEiMIB69atSw6FECJ7tm3b5v744w/3f06pbRpx0BAxAAAAAElFTkSuQmCC;" vertex="1" parent="1">
          <mxGeometry x="-396.12" y="37.9" width="254.49" height="160.5" as="geometry" />
        </mxCell>
        <mxCell id="70_-coMu-GgpPG_OgK7x-11" value="" style="shape=image;verticalLabelPosition=bottom;labelBackgroundColor=default;verticalAlign=top;aspect=fixed;imageAspect=0;image=data:image/png,iVBORw0KGgoAAAANSUhEUgAAAR8AAAC4CAYAAADaOeivAAAAAXNSR0IArs4c6QAAAARnQU1BAACxjwv8YQUAAAAJcEhZcwAADsMAAA7DAcdvqGQAABs/SURBVHhe7Z0LsB/THcfPzfWmaAgp6lnvEKKEaiumY4xHS8ww3hIGw5jrojV0iitmKJ3GqxPCEPFqZUI8hxiEiUcYRASJDOJNBEFSNG1s7+c4v5tzN/fmPnL///Pf/34/M2d2z2PP7p7d893f2d1zTsOYMWOy8ePHuw8//NAJUUmWLFniGhsbg682Wbx4sVtllVWCT1SCYcOGuZEjR7qGgQMHZjfddJMbPHhwiBJCiMqwaNEiN3nyZDdq1CjXcNddd2VHHHFEiBJCiMozfPhw1++Xv/xl8AohRHXYdNNNXb+wLoQQVUXiI4RIgsRHCJEEiY8QIgkSHyFEEiQ+QogkSHyEEEmQ+AghkiDxEUIkQeIjhEiCxEcIkQSJjxAiCRIfIUQSJD5CiCRIfIQQSZD4CCGSIPERQiRB4iOESILERwiRBImPECIJEh8hRBIkPkKIJEh8hBBJkPgIIZLQL8uysCqEENVDlo8QIgkSHyFEEiQ+QogkSHyEEEmQ+AghkiDxEUIkQeIjhEhC1cXn3XffDWvF5KuvvvJOCLFi9Ln4IC4jR47ssIIStuuuu1a88lZS4F555RV/DvZzpoRIiN7R5384UxlvueWW4GvPuuuu6xYsWOCXlWTfffcNa33PsGHD3Ny5c11DQ4M/10ruS4h6prGpqamlf//+wbvifPrpp27s2LHuvPPOc6uttloIXcpZZ53l9txzTzd79mx3+eWXu4EDB/r09913n1/HwcUXX+xF6l//+pePp6LvsssuPu6qq65y33//vdt88829H2uENAgDVhf+efPmuffff9/NnDmzbTt48skn3b333usmT57s87f9AflyzI888ojfHxbU1Vdf7Z5//nmfN9i+yJNzmTZtmt8X59TR+QohloU6VtV3PlRoKritYyEhMvvss4/bbLPNfHPGmkykQ0jgkEMO8ekmTZrk/U899ZR3huXFEkFiSZ7777+/zyNuhl1zzTXu66+/9mkQFgO/CR55Dx8+3Asi+SBYHBuQF/vCYmRfpCeNEKJnJP3aRYU/4YQTvFXR3Nzsl+PHjw+xPzZxCD/00EPdiBEj3Nlnnx1iOsaEgCXbIGjkgaUD7A8hQczOPPPMtnBAUEiLoNCkYnnllVf6fBA9LJ5YxNjH4MGD2/bFUgjRfZJ/ao+bRKzHFTy2KKjoWCw9BXEzCwfhIU/2Y1aLvZ/CyiGtQbxhwhIfmxBixUguPrHFgGUSE/tZX2eddYKvPfntYrBKAOHAqooF5qKLLvKiQxwOy0cIUR2Siw/NGQMRiS2O9957L6z9GGdWEmni7WbMmBHWlsWaRVg/bBNbU4TT9CKOZl0shFhJhu0rPjZD1pAQvaNi4sOXIF72mrPmTR6sEV4uk54KH1sm+HkJTDwCcfzxx/tw3tkgGmyDiwUAgUKo4nAsHPLIv5thHdEhLt4vkA95cNwsSZcXHywl9sUxSoSE6Bl9Lj5U0HHjxnkLI3ZWcYmj0pszPy+Hp0+f3q6C88KXdz3AS1++QAGVHj/bIBqkwwF5kY9tZxCOaPEyOYZjQ5TywoL4kDfWl+3DwlknH/KcMmWKPw7WhRA9YM6cOVkKWgUia62wwbcsxLVW7OBbMVpaWrJWwQq+pSxYsCBrFZNl9tNqqWXNzc3BJ4Toa5qamrLk73wqCU0h/s+hiWb/CBk0lYjDitKLZiGqTwOWz9Zbbx281QVxyDd3DOJoyqxoc4Z3Mp3l0Vkc4bjOjk0IsWLwn11Sy2d5lZu4FRUeWF4encURLuERorLUdbNLCFG7SHyEEEmQ+AghkiDxEUIkQeIjhEiCxEcIkYQ+H0ZVCCG6gywfIUQSJD5CiCRIfIQQSWh48803s2222SZ4K8+SJUv8GDn//ve/Q4gQoiesueaafpiXlVZaKYQUD/p2VVV87r77bj+w2O67795uyhqxlFmzZrkffvjB7bjjjiGksnzxxRfu1Vdf1fxjBeKzzz7zUzbdfPPN7vDDDw+hxaLq4kNB0WHzyCOPDCEiz4033ujF59RTTw0hleXll192119/vZ+LLD/QmqhdJkyY4FrrbrsZWIpE1Xu1P/fcc+73v/998AkhegsjcD799NPBV0yqKj78U9TY2OjXFy5c6Jeid1j5vfTSS37ZV5Bv7PJ0tb++Ph7RMSuvvHJYKy7JfjKcM2eOu/POO/366NGj280WIZYFIWD0ReOf//ynL8Of/exnIaQ9DzzwQFjrGeTL9fjjH//o1z/++OMQ8yM/+clPwlrHdBXfGZwLTpSHqls+eRCgIUOG+KFMESB7clLRqEB2Q1IhPvnkE780saJimIDdcMMNvoKyZDvSlAHmsue8EQsTDcoF4bDytDLryJLJc8opp7iDDz7Y7bbbbn493h7IF2x/OK4B14v8ic8fDxDPtWHJ8XFdbXv2wXa2rSgHVf/PJxYg5kR/8MEH242hbDcfS8LthsTxhYy2LpXDKsGnn37ql4sWLfJpuJE32mgjd/LJJ/vweoJzo/LizFK08gKmk+bcYdttt/Xlh2VEea211lq9si55IU2+PCAQ9fz+eOnJfohHUDo6HsQGd9RRR/nrx3kgRMRznbgH2J643lpOongk/cmQp2tLS4v/spO3iriJ7UbkZuXGRKxYN+Ib1W56vtpQIar1taiaUF7MQYaLBRthsbJgHSE2zDLqDWxn2+ZFwfyIiwlevJ/88eDP5wGE9fb4RLFJavlwY/KZH/OeubCoXFg0mPF2Q/JE5MlInN28PMEtnicqfgSHHxcx46kMPPnLfFNTVlZOVg5YMT2BPLg+XA+En2vQV/Aw4VphAWGZcb3YhygPDbNnz8648NUAUbjrrrvcGmus4f0Ihz018+tgfsx5+xeJuPgJyjrx9uIVP9YR6eN0RWF5//nE5RALq5UBcRZOmJWplQ9xVqZGZ//55K8H+eHII78//JYObJ/x8cT7jvPOb2/7Ecvnyy+/9M3Yzz//PIQUC/+TYUrxEcuinwxFd6gH8Un6zkcIUV6SvvMRQpQXjWQohEiCml1CiCQ0zJo1K9tuu+2Ct7Jssskm7vnnn3drr712CBF5/vrXv/oXzn/+859DSGWhc+Kll17qHnroIb1wLhDz5893Q4cO9csi4r92VVt8Xn/9dbfOOuuEEJFn1KhRfsA1/mKuBvxbw0+LU6ZMkfgUCMb0GTRokF8WkSTi89prr7l11103hIg8Ep/qwTk/9thj7quvvgohfUNn71E7C+cfrEMOOcQNHjw4hHSNxKeHdCU+3ATEvfLKK26XXXYJocvSVXyRkfhUB/6svuCCC9xpp53mNt544xDanp6KCPTmA87777/vrrjiCt937oADDgihy6cexIdhO1vLqzq0XuTsyy+/DL4fGTZsWDZ37ly/znL69OnZiBEjvL8zWitKWKs/WkUnu/DCC4Mv8+VBGS1YsMD7m5ub21xcDsRb+Lhx43wY5Yi/paXF+61sr7zyyrYyf/LJJ7N99tkn++GHH7y/LPTv3z+bNm1a8GXZpEmT2soY8v7OoExJa7BOWE+ZOHFitttuuwVf18ybNy8bMGBA8BWPpqamLOnXLoaAZCBsnvKtx+Mtn9gEZqB5rByzAlg3RzrCr7rqKnfWWWe1xbONpWcdN3LkyF716K4VsPKsXN59913fDw4Xdy6lLOkvRfh9993nywIzHr+VK+XCE6dVgNqVc9nA0mAQdl7YGpQZ9wpYWdm9ZmFWZiy5Dvl1ljhLa+F2vxpxnIHFM2PGjOArB0l/MuSCH3roob6p9fXXX7ddPOBG4CJR8ewGsHi7SAgKFYntCb/66qt9hUTQEKX33nvPp6MCEldEOP+4mcoY2Ijt8OHD2wkq52pNUdJQHiyB7Z999lkfZhWhXputvYUy4n4EytWE3R5klBnrxFH+iL3FAfdbfD1MvEhHeCxmtr2JHayyyiphrTwks3ysInBRuLDxhYDx48cvU0FIhzO4YXB8PSM/4tgOZxWPmyiuvEXHrB4c5xljZWPlQpnEEI9IxWUolsJDizLj4dbZy197R9banG0TG0SLhycPQuBBt9lmm/kHK/eh3X+kw4+FSnoTu7JS9T+cbX9UHKtE48aNc7feeqsPN3gBykW0CoRQdWWWcmG5abi49SI43OCUgS3tCUv58YWEMBznzM1MHOKCcOOn3PAfeOCBvqypFKTnySuWQhkhFpRr/CsI9xRxJtjE2brdY5S1XQewawE8XMmXMOAhS3quXdlpeOONN7Ltt98+eCsLX7sQkPXWW89XitiywW8Xk4tLnF10bgAqiz1FLJ6KhmXDRSccRzqWhJOnbZPfX62S/9plYgIcf1wW+O2Gx28CZU1ZzhlHWRAP+K38SFPWr12rrrqqH/YDMQbKm3JgaRaQgZBQVsA7M2vCsy3lSJlS5oTz8CMt5W1CZpYUVudhhx3m7rnnnrb8ECHymDhxovvLX/7iZs+e7cO7oi4+tacSH9Ex+tReHc477zw/WeI555zT6SD81QKh43ofd9xx7owzzgihy0fi00MQH54S66+/fggReSQ+1eNvf/ub/7cm9Zg4/GfERJonnXRSCOkaiU8Pkfh0jcRHdId6EB+N5yOESIKG1BBCJKHqzS7max8wYEAIEXkY3oJmF/2OqsHUqVPdJZdc4iZPnqxmV4FgKA1mE9E7n27CizXeMUh8Oufyyy/34/mcf/75IaSyPPPMM17wmJ5I4lMZOnvVYOH9+vW8AYL47LXXXoUezyfZT4ZCpOZPf/qT+8UvfuF++tOfVtT179+/Q8cvJ7gdd9zRDyJXNvTOR5QSukdgYfL1lWVvHVPYLM/fHTdhwgT/hz/DapSJZF+7Zs6c6YfuXBGuu+66sFb/8GSkKXb66af7GUQN+ghZHGUa+xkiFQinrKrVlKt1/vOf//huDv/4xz/axvKho278VzN+hKkrSEOXF4N8+dO8J/zqV79yt99+u7vjjjtCSDlIZvlQSRjaIIbKQiWxcCoZfqtsFm+itemmm/plGeCP3Msuu8zttNNO3hmUza9//WsfZ2VHueA3U57wo48+2udhglRmeE/Cx4/VVlsthPzYT8v+rUJQrGuPCQvr1tUFgaFneixWhMf95cjDuruQh+VtebI968ZvfvMb99FHHwVfOaipZhcVh5HljjnmGO+n8lCxeHKb8FCJAPGKLYAyYKIciw9ls/fee/t14iknE2XS8XWRNJQV8ZSnWBbEx/pbIRrW8ZMPJIBQWMddoJOuCQr3Iuv00QIEh35e1veO3u70AzMho68dP3YiQGUmWbMrDxeQihMLij3lDzroIF9xeHLT7CBdGQehx+KjLGIoB8rO1mNrkPBvvvmmbb2MZdZdEBcEB6uGDqAmRHkQI8Qjxiwc67xLh1LrYIoFZHlyDfAjTLjY8ikjSS0fLoY5BAWhiZ/MPLERHZZUHJbWLma9bHDOJi6sU26UGeNiU05WfogUcZTZ/vvv78MQLSvnstPY2OgWL14cfEtBVLBubPgLsNECzOIhDnHBbwKFaNET3ppdWDWIFEJDfjbOj1lPpEecYvFZtGhR6QYUSyY+VoloSuEYbwaoHLyvoAJRmbCEqERUHvy8NGVb1vNWQL2TP18Eh2YoQkR50WQ164cmK36gPClXK9OyQy92PnXzlcmwZhb/nyBCNgwJzStEhHWEx8bmwdJBZGhakZZwxIQlaSdNmuS3Y3ssH8QJwWEbs5JYJw3cdNNN/r+dMtHw+uuvZzvssEPwVha+LDzxxBNu4MCBIWT58O6nbF8A9JNhdeA+PPnkk72Q2BevVLzzzjvurbfe8hZVd2eSqYefDKsuPo8//ni3x0/hyR6/wygDEp/qwVAaNJ+++OKLEJKGjTbayO23337tvr51RV2Iz2uvvZbxh2U16Kn4lBGJj+gO9SA+NfO1SwhRLqoqPnvuuafvPS2EWDEefvhh/2d0kalqs+v+++/3A2gfddRR/g9TsSzMr0Wzq1o/A37wwQf+SxjXRBSDjz/+2H8F5msd3UCKSNXf+QAv+W677Tb37bffhhAhRE/gxTSDzW+wwQYhpHgkER8hhEjywlkIIUDiI4RIgsRHCJGEqg+jKoQQIMtHCJEEiY8QIgkSHyFEEiQ+QogkSHyEEEmQ+AghktAwc+bMbNCgQcErOoJZB5jUrewDftciQ4cOdccee2zphtQtOr5vl8Rn+YwePdqNGTPGjR071m2xxRYhVNQKjzzyiDvjjDP8aIRMTSyKgRefV199NdOg4p1D2Vx77bXLTJciaofjjz/eDRkyxE+BLIqBOpZ2A4apzA/aRDNs5MiRbY5xgFnSLGP6FGYnYMYC6Gq8FbYDtmN7284mmCsCds6pYCaIhQsXBp8oChKfbsDgXjFMAIdyjxs3zrvYKqIiMAtBftI5BIoKimN2S5sHyiA9wsP2wJQsJmaktzmh2B5hsilX2MbSdPROysQMWDeBs/Tkx/bkF+8DP460lgfxrLN/jt/ysHNlPT7W/PZCxCQTH25Ue7rbTVqrLFmyJKwtBYGhouGorAbngjARb+GEMYkcwoKlQzz+eDvKg2YD+QHbE8Ykc6RnhktgySR0hLM9Syo/0/F2Vobsn7QzZszwS47DZuckjjzYnn0CaQjHb/NXEXbNNdf4dfLh2Jh2hjw4FxMejpV1xIljte0JEyImqeXDTWw3OZOtcYObRcBNPXXq1DY/T1PiWVpTx8IBv23Ptn3ZbMlbPmCzVOJiK4dz4piobFbhOF7SWZgJCccLhCEAHHe8HZA3jgqMxcX5xdsThwhgKTEjaR7KlfQcE8fMNuwLR37A9h29rEVIEBS2Z/84xITJ78xveYAdG2GcA5Pi2fZxGQkBScUH4aFicpNyc3LD8hQFlszZZRWNygKko6ljk+zHT2sc6alwffmCuCPxAY7FHFD5OSf2b2EwZcoUf7wWxvmaYBjEdXTMcT7MRkqF72h7w8rBYHscgkD+lKvNnhmnM+JrgJhQ1uwL8epqBASOjZe/iBzr+e2FiEkqPlaREKCObmyrbFQIq0SIDVZNbB3E2NPWmi99Qb7ZRWWigiJ0OLMqaLpQsQmzaXbNMsKKoDIyjS7HT8Un3OLZ1iorS/ZBOEsgf/zkm9+e+bYoJ9ISzvYxbGv5cBwIuaVnaSJG2XHshBOGoxwRVYSLfIB1trPjs3w4N/Jm/5avXQcEWYh28Kk9BQsWLMhGjBjh11tv2qy10vmw1hs7mzt3btZ683o/ca03cdZqPXjX0tLil4QBS9suzqe5uTmbPn26T7MibLjhhtn8+fODr/bh3HFl4oILLshGjRoVfKIINDU1ZUktH3uSxk9Fnr48OXnC82Qljqc1T1scFgJPd56yZinwroT09rTl6U3erPcFnTW7ahHKDCdEraOfDLtgjz328E2HAw44IISIWuOII45wv/vd79ypp54aQkStg0HRMGPGjGznnXcOQSLPdddd5y655BL397//3VtWorZ49NFH3RVXXOHng1t99dVDqKh1JD7d5I477vATHXb0KVukZffdd/cdS7FQRXGQ+AghkoD4JH3hLIQoLxKfHpBlWTInRL0h8ekCKj59rtZbbz3X2NiYzB122GFtfx4LUQ9IfLpg1KhR7tlnn3UvvPCC/98nhfvuu+98V5Nzzz03HJUQxUfi0wX8xMjn9q222iqEVJ9VV13Vd6n45ptv3PTp00OoEMVG4tMF33//vR/NMIZ+ZSeeeGJbZ0n+uN53331959F8vyrCGFDM+jghIoThevouZ+2113b//e9/g0+IYlNzc7XTGbPWyHcsRWz+8Ic/tHVuRYTo3oGz3vdAOqArCGlxDLlBOjpj6h2OKDPJLB8qIk9/4+yzz/aV1Sp0npRDMvDeJYY+Y3H/KQTF/CY4wDpDVwBLhNXS8bd0LQqtENUiabMrLzT4sQZY0kyx5gmVFD8CRLPG4qpFXnzyxJ05Y1FCpOwcWSI4eb8QZSWp+CAkjOWDY8AtMGuAJc0ToEJTUW1MGxsMq1rWUL7ZxbFh1WDxsOS46EnP+ZigcGwcK80w0iCqJj5sj7+vet0LUUSSig9DZPA1CccL25jYkjBrARhMDEfFj8MrSd7ysf3aaICch63z2zjxHB8goIiSCSnnivggWLJ8RJkp1NcuKjQV196jWAWvNHnxQWwYxB3HOjDuEH7E0qwzwLoh3ISGOPyyekTZSSY+VEKsBKOpqclXUAYTi+OoxIRjMQBfjognnQ1GVmk6mr2iK2TVCLF8GloticwsCbEsNkgVA1alZNGiRb6LBwPBDxw4MIQKUUz8kBoSn+Vz++23u0svvdQdd9xx7uc//3kIrS7PPPOMe+edd7z43HnnnSFUiOIi8ekmVH4GE8P6SMXBBx/sjjzyyOAToth48WGGB738FEJUE8SnUF+7hBD1g8RHCJEEiY8QIgl651My/ve//4W19nR3dINaSqepcoqLXjiXhPnz5/tRA+jmwfxW9QK/Hvz2t791o0eP1r9PBUMvnEvAvHnz3KBBg9zGG2/sO7MyJGu9uKlTp7otttjCD/b20UcfhTMWRUGWT51zzDHH+Pnt+VGyEtCJFpeyOwldbWbNmuUmTJgQQkStI8unBDz++OPutNNOC76eQTONcZN23XVXv7ShYA1EJx5nKRWcH+cpioXEp45hemeaJ73tFkKPfYYCwTLmSYWFYWNQdyQ2jDiAENlAb6zfcsstfrwm0hNvfhuLCT8CxrK38L6nX79+/t2WKA41N4azqF2wdBAkRIgxlfIwoJoJFSIVj2lEHOMd0TGWEQoQHGuukT4e+1qUA1k+ottguSAiWCkISR7ExAZ7s3dAiBFDoBi8fwKLX15+or6R+IhuY5YKgoJY0KyLIY5OyszMEQtOZ8T5gQSoXDS8/PLLGS8URf2BODDTaV4kegoWDyKBoPCuxqwW3rMwyiPh5ohnSfMs3o51lkAYfkTH8iMOMTIh6ikDBgxwb7zxhl+K2oemtsSnjvn22299pV68eHEIqV/WWmst9+GHH7YJnKht9Km9zlljjTXctttuW/cDkN19991uk002kfAUDIlPncM/MGPHjnULFy4MIfUFvxKMGTPGnX766SFEFAU1u0pAc3Ozf7dy+OGHu+222y6EFp85c+a4iRMnugMPPNBde+21IVQUAb3zKRFPPPGEmzZtmnv77bdDSPHZcsst3R577OH222+/ECKKghefl156KRsyZEgIEkKIyqMXzkKIZEh8hBBJkPgIIZIg8RFCJEHiI4RIgsRHCJEEiY8QIgkSHyFEEjSSoRAiCbJ8hBBJ6Dd37tywKoQQ1aPfiy++GFaFEKI6MMpCw+abb54xENNWW20VgoUQonI8+uijbujQoe7/KqHZa6zgNuoAAAAASUVORK5CYII=;" vertex="1" parent="1">
          <mxGeometry x="-60.93" y="272.86999999999995" width="269.01" height="172.47" as="geometry" />
        </mxCell>
        <mxCell id="70_-coMu-GgpPG_OgK7x-24" value="" style="edgeStyle=orthogonalEdgeStyle;rounded=0;orthogonalLoop=1;jettySize=auto;html=1;" edge="1" parent="1" source="70_-coMu-GgpPG_OgK7x-20" target="70_-coMu-GgpPG_OgK7x-23">
          <mxGeometry relative="1" as="geometry" />
        </mxCell>
        <mxCell id="70_-coMu-GgpPG_OgK7x-20" value="" style="shape=image;verticalLabelPosition=bottom;labelBackgroundColor=default;verticalAlign=top;aspect=fixed;imageAspect=0;image=data:image/png,iVBORw0KGgoAAAANSUhEUgAAAQgAAACPCAYAAAAGNEUrAAAAAXNSR0IArs4c6QAAAARnQU1BAACxjwv8YQUAAAAJcEhZcwAADsMAAA7DAcdvqGQAABiBSURBVHhe7Z1pjBRFG8cbPJAoQjwS8OCIcnwAkSMxoogYowZUIPhBwLiriYigsgpBxA+8olFilHVNPMDoghGRmLAgakz8gAcgRhBQRNTEFSJyBddFPNDAvvur7Wesbad3Z2Znd+f4/5JOd1VXVT/VXc+/qnt6ujrU1RMIIUQSOoZrIYT4DxIIIUQsEgghRCwSCCFELBIIIUQsEgghRCwZCcSPP/4YPPvss8Gvv/4axvzLtm3bYvdlG45zxx13hKHcY/To0cHq1avDkBB5CO9BpEtVVRXvTtSVlpaGMf8yYcIEt2/r1q1hTHbhmH7Z1dXV4Vb7UF5e7s6Hcemll4ZbdXU1NTVuESJfOel/9TilSINdu3YFBw4cCD788MNg7ty5YWzgRg0VFRVB9+7dg/HjxwebNm0K/vrrLxc2yLNz585gw4YNQb0zhbENoxL2kfbNN98MevfuHbz//vvBypUr3Xa3bt1cb7x48eLg2LFjLt3+/fvdwn7ycnyOaXGErQzymx0ci5EOLF261OUZMGBAcNppp7k4y8dCXX07SU/ZL730kktPfTkXxGH3mjVr3HHMJo7LIkQ+kvEzCBo9IoDDGGyPGzcuDDU4Wv2IIgw1wC3B8ePHgwceeMA5qrFs2TK3kIc07N++fbtLM2TIEJeGY7IfWOOAOCiQlzyEycP+a665xpXRtWtXZ4fZijgQfvTRR134o48+crcDBvsoj+Oxz47v27Z79+7g559/TtSBNXGkMRuxBRuFyFvCkURaMKSuF4e6devWNbrNuPrqq10cw2xuAxhecwi7DbB9J06cqCsrK2uUl3j2k5Y8q1atCvfU1dU7qtsH9T1zYpvhPXYAZVGGQTn+0J+02Ad2i+TfnliYfRzPvzXo06dPXWVlZaI+9YOucE9DndkH1Jm8hr9PiHykRb9i1DuA643pMW09atSocG9Dj1/vuIlent6YUUeHDh2CmTNnJh7g2XCf8gx/WM9w3R9txOHnJw/Q2zM6YETgl4FtlgY4Hr09adhmv0E6RgdGSUlJuCVEYdPinzlxShyde29zfp/58+cnhvaszblwOpyQOMsL5pi+g0I03Bz8woE4cLz6XjxRfhyIG8eora1Nemy7bRCimGixQCAAjBAQiWQ9qwkB9+70zH6vTV5GFb5wZAt6fETBjmkjHINtG1FYPGkZAUWfG5DXHxlFkXiIQqXFAmG9K05ozh91GIQgmYDgwIhDVDiaguPxcDHZwz+/5x88eLA7JiMJHjLi4NhFGDgeIwwbaZj9jIiwh9sSbEPYevXq1ej2xT8Oabl9IS35OQZ5UrklEiLnCZ9FpAUP8+xBIfBwzn/gx4M+/yEfaeudJ+k7AfUO1uhhImmiD/bYb+Xbfjum2cHafz8CiOPhpMUTZqE8jktZ7Ke8qG2kYZ9fl2S2AXFmB8cye327hchHWv2DMfSo/GxID8xIwodel9uTeudq1Cu3NowsGIXUO3MYI4RIRotvMZoCR2R4z9A7Kg59+vRx4lDf+7apOAghUkefnBNCxNKqIwghRH4jgRBCxCKBEELEIoEQQsQigRBCxCKBEELEIoEQQsTSovcgPvvss2D9+vXB0aNHwxghRK5z5plnuv8a8T+i5shYIJ566qng8ccfD8aOHesOKIqbzz//PDjllFNSanSFzOHDh90fCSdOnBjG5B78/aGqqsr9UXH69OlhbHIyFoizzjorWLRoUTBo0KAwRhQzL7zwQtC5c2f3T9Zi5rvvvgv4zOsbb7wRxuQmjP4XLlwY7NmzJ4xJTkbPIA4dOuR6C4mDEPnJZZddFtTU1ARHjhwJY5Kjh5RCiFiyJhDRIdWWLVta/EVnvhqdTbCnpTaJ3OC3335rdC1pf8QlY/bs2bH7WhtsxBcMbkGIw14/HrLd3o21a9e647KkS0YCkeyxxTvvvBNuNdCvX79g2LBhrtJcHN84tpPFGeRh4ZsN+/bta3RxSRdNa2vSWZjt6DGwyf8ylMhfuLZ8rhBwNn5J69KlS6Id+NedcHuBDzzzzDNuGzuWLFkSnHfeec5e30628SFf9Pw6AGn8urDfLwMs7KfjvBA+44wzwpjUabVbDNQR5aLCKLituYArVqwIXn75ZRc3efJkl96fvwdhsBNI+rvvvjvcE7gTTH4TAsrhhEyZMsVtW7kIy2233ZY4BmuzSRQOJg5Tp051YSYvov3gbH67aS9wzlmzZrkH+rS9oUOHuo4KTBBuvvlmF6Z9msBRh82bN7s1cbRxyiA9cYAv0N4tHeBjhElLPtIjpN9++61Lmy5t8gwCFeUCcmJsWMWJIm748OEJZ/fp27evO7nktTRUljLuuusuV1lTSeJI++CDD7rFRjOUwTEQH19lRWFAW6Lxm8MZN954o2sH/fv3z4nrbiPp77//PtEhAnbSPhnV0qExsmCbetGeCffo0cO1exbzCTCfufXWW12ZCADgE+YL5OfYHIdt8710aBOBsKENa6sgBoM5eVOYINAYrLKcECqM0ICVQ/nJytTLXIUHjZ+pGBlR+kJgbYwpEJN1Pu0BH03GwVPBb8vUEdGwWygWfCAORlSkYSTBOcFv8BV8JhVfi5I1gaACOCxLVLW/+OILF4eCmtpzUUnLBcR41B6V9B82sWY/FWabtQnLpEmT3DDKf6bAEI78nFTgeByXEUWqF0fkH08//XRiKA42dKfdRUcXuQztG7tp07RbwtbrIzA2WiKOfcngPJCG9AgDfoNvcdtBnnQFM6PJe3///ffgxRdfdPf9BqMDjGH5+++/nZF8i5LPv7PN+vrrr3dxVJQKEHffffcFnTp1ciflq6++Ci655BKXnm9W8p4FacizY8cON1pgG5igh+OYQHz66acJYWDIxRtt7OeB6ogRI9xiAhN3ckXm2JuUNo9pW3D22We760n7ufzyy10nhWMNHDjQXXveZrTrjZO0BXFvUmIDbdfaHmtuH1ifeuqpbh/tl1sN2j2jhI0bNzq7WagHaSibtkzYrz/b7Cds+fANFgQFv7ruuuucfaQBPhrN8xHyx5HRm5QHDx50lXjvvffCmHjo0THIHBlQOW4bzNDm4GEMJ84+fEuFiaNyiAkgChzLsJED92Ki9cmVNykZVdL5WGfR1tDu8uFNSsAn9+7d2+RfJVr9GQSOa05s4LSmpKmAmvpfxaY8hpV+udGBEPuaulcThQkdT7S9icxpk4eU0ZEC4pCOQKSSP1mjUEMpPtJtW6Jp2kQghBD5iQRCCBGLBEIIEUvGv2Iwe/Y333wTxohi57HHHnM/dTNTejHDT/X33nuv+yk/17nwwgub/RUjI4E4cOCA+707V95SE+3PI4884gTi4YcfDmOKk23btgV33nmne0kr10EYfvrpp/b9mVMIkb9IIIQQsWRVIPgYJkMsg9dCWVavXu1emW4KSytEqvhtDQhH2xDtLhfaFbbhH4a1dxaLZx21NVmdDNvnl5ssvZXrp0uVrApERUVFMGHChDDU8ConXznmImF4U1haIVKBh6F8ut0aPQ6wbNkyFyYe+GozbZK257fLtgY7sNccF39YsGCBW7OYA5OGbZ7v8WiQ/0pgv18ng3y2j7qxTpaedLz+zjnI5DX4rAkERmEMr0RjKLBm9GDYhWJtH7jgxHACLS3bVIQK2kUlPSePMPuBbUvnH0MUBzNnzmz0/x7ayLhx44Lx48e7eMKsaY9lZWVhqvYBm7DNwFf4FZD40tJS9ycrOsfy8nIXx/bu3bvdLyHYb3HkM2jz0fpG01MGosk2afjUfbpkTSAwmD/JYBwqZlilWCMKlZWVLoyYGLW1tW5taTlh69atc2tTypKSEpeXSoOJEZU2sRHFA23D5+OPP07E9erVyzkMjtGtW7dE22wvorYCzky7ZrRAJ4mdtGnCbFsdLC9xhI3t27e7+gFiw75oev7hTNmU5YtLOmRNINasWeMWenoq6gsAmGhgeHNQYYNyqDhKaEJAZSmHk8E6lTJFYUNb8DsjaxOMOAm39yjCB8fmZ1A6OEYN+I3Fb926NeE/frsm7AtNtL7mCwbpL7jgAtf5IkaZvpeRFYHAgTGO3pxent4/2qtzMjgB3EpQGSoAqRjO8IgRBCeTnkCCIKJcddVViR6WNmVtDRjG5xK0fbMNW2nP+IvFYTsjZbt1MCHAbyxMJ2rPNGw0EU1/5ZVXur+/Uz7+R/nmd6mSNYHAgQ2MxSjWVMrCGEllgPQ8Q2D4wxJNC5wEthEGTgYn0SrPyTDII4oH2oA9n6INMUrg1hanYgTLvTltiXQ4IGlZ0nWObIGN2MEomG2zje2uXbu65ynmG9hJHO2bePJYncAEgPoC+/AfykyWnnLYz7HIR7p00JuUIivoTcoGcGC9SSmEKAokEEKIWDISiAzuSoQQeYhGEEKIWCQQQohYMvoVY//+/W6Oiurq6jBGFDv8THf66acHc+bMCWOKE36qZE7QTZs2hTG5y7nnntvsrxgZCwQ/c+7atSuMEcUOX5RCIIp9HhK+KDVjxgz36neuwxel9DOnECJjJBBCiFhyTiAYotm/O4UQqdFaPpM1gRg5cmS41TJ4D33Pnj1hSIjmwTluuummYP369S7Mmvb47rvvunCuQOfHq+hMer1w4UIXZ5NgM00k83lSl+nTp7uFeH+CbCBs+8kLlEW5lMExgHNAHEtLzkOrjiCoABUxA1mzYLRNbupXhJODOGgEIdKBtsQDN4P2M3bs2DCUO9C2586dGyxfvtxNfG3tnYmPmWga36CDJMzCvzHvueeeMHcD5LH9ts/iKNdEgzXHevLJJ12ZmdJqAkHFrbJcQMKoG4Lw0EMPuZNBHOpHRags+4ljESIVbNTAbPMG4tASp2gtsMtGEWPGjHE24tzJbDV/QSSikJ+Ol7rbiAGsPHyLeESC7WRlpEqrCYQZ648MAGP5CzcXlDjEgWETlfEvshDNYc7ADPL5Qs+ePV07x26gDoYvFHSqyepFh4vPsJ43b54rz89nfpctWk0gqCDGR4c4JhSs2c/C8ArhsPsyIVIBR2ChE6K90clY+8pFsI/2juPzjQbf1qhTb9iwIWnPz6ghKgg2iqA8wpTPGiFh1GJilAkZCUSyd6uooD084YJROU4IYRSTbcBY4qgAJ4t40hOfq0NDkZvQfuhJWbhFZSGO9kV7om3lUqeDH9iDxyuuuMLZis08XCTOF4SoYJAG8A/8hfTTpk1zcVYu9bZRBx2zxUXLSoeM3qTct2+fe9U63TcpuVichGTKSCUkDvmL3qRsgN48kzcpW6v9N1Vuzr1JiWLGGStxEMVMa7X/lpbbpgLB8EcPIoXIH9pUIIQQ+YUEQggRiwRCCBFLiwSiY8eOWrS4pUOHDm5Jtq+Ylnw6D6mQ8c+cw4YN07wYIoHmxWhA82IIIYoGCYQQIpZWFQjmAhRC5C9ZEQjuu2xmYiDMhKpMuMvahwlUW0M4mNjXnzVZFDa0MZuQ1mf16tWJmeVpD2wzIa7NhN0eYCMT6mIzYItNKDx69GjXZkmDrdTJfMZst3T+5MN+GSzk98uw+hJH+cRxbtIlI4GIPtdkdu01a9YkTgBG2uzbvAuOYVa5iooKtwDGUxHLB1YhS88+tv0ySEPYv+g2Hbo/67coXJjF2ncYoF0wi7a1J9oIs1xXVVU5B20vrNMye2mj2MTCNjNuYzP/8KysrHR1YEoJphIgDXGksVnvgbKsbizs4zijRo1y6a2++ASznhPH+WFJh6zdYmCAqR9G2pT8drEwmEphIO+HYzTKBwgGF5O0iAuVpSzS0xBMUCw9azupJjCcVPJZGlHYlJeXN3IYoJ3YtPdQVlbm2gltxNpje4AdOH8U2jcLIsHClP60ZXzErxv1Kikp+U99mYPDRuqAD1gHyfrLL790f57jGPhfaWnpf8pojqwJBAeeOXOmG0lwQgwuEBXnAlF5wmxv3bo1ofjkpbJUlMqwTZxVHMGhDPLaCUU4KIdt4hlBsA/SVUmR/9DB0PFEhYA2R1tJ1zHaAhyfUYJBuyWO9mz2Emdt3od60ubxCzpVExaD/Dt37nTCxHYygUqFrD6kNOf3McOi/yojLZVGGREWU0jEgG16CCoP0YvLSWXhwqOgNsIwhZRAFB+vvfaaG5XaSBXBYKGNMbqNOlAugD34AdAZ0naxFcenowXs9kdFBvlo76zZTzp8z+pI+IYbbnD1xwfxpUzqn1WBSAUqj2NTMS4kJwYHx3gqYc8yUMW4CnH7QRo7uXbLYuWwTxQutBs6Bq4115zrvWrVKtepsNAuaEuMRBEM0uJ80Y6mreD42EK7R7QgWdvm9pj9+AAdJVA3327Kov7E++kRB4SC+hJn9aXzZZROHH4T51Ox8CZluuzdu7euR48eYagx9bcO4VZdXU1NTV11dfV/ttetW+fCQHo/D/j7yZNsu6qqyuWzMHmsnGh5ovWZN29e3RNPPBGGWh+uty3R6+2HaTN+O2ltONaQIUPCUAO+rSxG1G5sZL9vq9/mwQ8nS892svpG00GXLl3qamtrw1ByMnrVmleshw8frletRQK9at0APbtetRZCFAUSCCFELBIIIUQsEgghRCwZCcRJJ50U/PPPP2FICJGP4MP4clNk9CsGDBgwwD25tpeZRHGzYMECNy/GrFmzwpjihNebmRfjk08+CWNyk9dffz145ZVXgs2bN4cxyclYIN5++203K5C9yimKG15UO/nkk4Pzzz8/jClOjh075ibP4TWAXOWXX34JDh065AQi+gp3lIwFAjgZGzduDI4ePRrGCCFyHd57sDc1m6NFAiGEKGz0K4YQIhYJhBAiFgmEECIWCYQQIhYJhBAiFgmEECIWCYQQIhYJhBAiFgmEECIWCYQQIhYJhBAiFv0XQxQcBw4caPMPKrfUjbKdn88x8BHhliKBEAXBiRMn3DRzzBFx5MiR4KKLLgr3/EsxNXX+cn7xxRcHU6dODe6///4wNn0kECLv4eMs06ZNC0aMGBHMmTMn6Nu3b7inuHnrrbeCxYsXB507dw5WrFiR0YhCAiHyniFDhgQjR44MnnvuuTBG+DC71p9//hksWbIkjEkdCYTIa2bPnh0cPnw4ePXVV4MOHTqEscLn+PHjwcCBA4OFCxcmneezKfQrhshrmHeS+2yJQzx8mHbKlCnu62/pIoEQeQtfZd6yZUswdOjQMKZhYt+lS5eGoQaYDo+lpTDRtE2+21Js8uG2gnOUyXSAEgiRt/Dh1e7duwedOnUKYxoEglmsWRvMFM/M2pliM83zgVcWxCYqQlGac36+fh1Ng93ZAgHyRbFnz57B/v37w1Dq6BmEyFuSTSJNL89tR9euXYOysjLnJBUVFYkvr/PArnfv3s6BeKr/9ddfB+Xl5U5QEAKbNh/nJa6ystI9BCWflUH57CefCQ9p58+f36gc0pCfbablJ8w0/aRjgt+amhq3D3t4NsB0/hyntrbWfVQWMSIfcVYm5VOG2YcNYCLGPtKPHj3abduzmR07dgSTJk1yP3+mg0YQouBAHMxxeS+ipKTEbeOYOBLg5LfccosTFODWwR7gDR48OOF4gKOVlpa6bZwQ5yUtjs02Dkkeu/3Akauqqlw8cYTZpkyORxmAXQgIcZTFgqiBpQHb5likp0zKwga2yeeXDyYULX02I4EQBQc9MM5BD4tz4UCAozKiIJ44c1xuF7Zv3+4cjjgWS+87ahT2ITiMUMjPccGOx5r5QiifNDgzeVgYuOPEzeEfn/S+fUa0/GwigRAFCTO+Mcym1/WdBkFgKG+jBdLhXDhzXG8bFQo/zDZl+k7L6ATozTk+4kEaE4RkTuznZzIqE7dkaX3I55dvefzyWoIEQhQUODrDfXNc7uMtDgizjzWwzX67DbG8gHMDtyaICA7IgqgwMmA0Qhr2cSxgEinieHYAHId93PLYMwMTDsPEym6BbDpLyiUd9vjpzXZswXYrH3vsFoSyiGtOYJpDDylF3pLsIWVT2ANLHBInxHkYnnNrgENlA5yfEUS2yssWekgpRArQ21oPDfTC1vtnA8qzEUEu8cMPP4Rb6aERhMhrzjnnHNc78j6EiGf58uVuwu2VK1eGMamhEYTIa4YNG+buu0XT8Bal/8ZpqkggRF5z++23u15RA+F4EIfnn38+mDhxYhiTOhIIkdfwJyTu+/kexB9//BHGCoOHktdee22waNEi9wGZdNEzCJH30IR5A3Ht2rXBjBkz3G1Hv379wr3Fx8GDB4O9e/e6P7LxawqvlWf6IFYCIQoGBOKDDz5wjlFdXR3Gtj18/q5jx/YdnA8aNMgJ5eTJk923IDJFAiFEluFlqDFjxgT9+/cPY/IXPYMQIsvs3LnTfSezEJBACCFikUAIIWKRQAghYpFACCFikUAIIWKRQAghYpFACCFikUAIIWIIgv8DQG5cLnfSkbIAAAAASUVORK5CYII=;" vertex="1" parent="1">
          <mxGeometry x="-396.12" y="280" width="264" height="143" as="geometry" />
        </mxCell>
        <mxCell id="70_-coMu-GgpPG_OgK7x-22" value="" style="endArrow=classic;html=1;rounded=0;exitX=0;exitY=1;exitDx=0;exitDy=0;entryX=1.007;entryY=-0.036;entryDx=0;entryDy=0;entryPerimeter=0;" edge="1" parent="1" source="70_-coMu-GgpPG_OgK7x-8" target="70_-coMu-GgpPG_OgK7x-20">
          <mxGeometry width="50" height="50" relative="1" as="geometry">
            <mxPoint x="-132.12" y="270" as="sourcePoint" />
            <mxPoint x="-170" y="240" as="targetPoint" />
          </mxGeometry>
        </mxCell>
        <mxCell id="70_-coMu-GgpPG_OgK7x-23" value="" style="shape=image;verticalLabelPosition=bottom;labelBackgroundColor=default;verticalAlign=top;aspect=fixed;imageAspect=0;image=data:image/png,iVBORw0KGgoAAAANSUhEUgAAAPsAAACxCAYAAAACscusAAAAAXNSR0IArs4c6QAAAARnQU1BAACxjwv8YQUAAAAJcEhZcwAADsMAAA7DAcdvqGQAAC+HSURBVHhe7d15zHRXXQfwAQKthEVAwiIuLVATC2gplQSs2oSoCBQEjAINS5F9lSIIfwA2AoKCgkBbTIriUkwUNbKEBKgCMZhUltKyFVo2BQpYKYtWltf3czvft7/3vHeeZ2ae5Z3nmfNNbu495/zO7/zWc+7M3LnnegcOYtLR0eDcc8+dfOhDHxrOHfsD15+eOzo69jl6snd0rAl6snd0rAmOSPb//u//Ho4xbNS23fjnf/7nyZ/92Z9NSzsPYxmzo2O/4ohkF/C3uMUtJn/8x388rbkOr3rVq4Y2X9zsBIz9mc98Zrj+wR/8weEM6v7hH/5hWtoZ/Pmf//lMvXZj/Ba7OdF1rAdGb+N/4Rd+YUjsFv/4j/94WBJuBWN3CcZMsv/0T//05NGPfvRwbRIwdouN7jI2uguZVR/d2vZZ42+ElsesMWGs7Xd/93enVx0d24PRZE/QJ/HAyvZjP/Zjkx//8R8fyr/1W781ecxjHjNcB7/6q786ed7znje53vWud1gA63vSSScN/LT90R/90eS0004b7hLUg+BGh6+7Cgd+Ek2dsz6AznV41FUQf7z0Pe644w71AeMrawtdxWc/+9mhnUz4om/Hjw4Vd7/73Q+t/PrhixYd2aJLygG6yOj44Ac/ONTHVs7G7ejYFvidveLv//7vDzzoQQ868IY3vOHAi170omntgaFO28EV98DBoDxw1VVXHTg4KQxnuOKKK4byf/3Xfx04eGdw4GBCD/WgL15oDPnCF75w6OdQVg8HJ5IDF1544XCtv37wzGc+88DBVX64Btehy7gBfpUWz8hChqqTfpdffvlwTWa0kcXY6VfHjw4VB5NysA3giZZuZESrvzKbRlZ8jBn7kWujMXYb55xzzoEnPOEJ01LHfsDMb+MPBvuhz+1WaZ9nf/7nf34ow8GgHVb5rGjObv/VP+pRjxo+A0P6PuMZzxjKoB1deCy6eh1MwqGvMfXNGMEDH/jA6dW1enz9618frg9OMkObfg5j/8u//MvQBmjVgY8RtW0RGIN8eADdldmHrA7jHJwghhWcLOqcOzp2CjOTXXAKfkkkoZLIFYI4Se0zrbJb1YMr1BC8Atltq6DXN/0rn1o/D/B1y+vWWjIqt0jCgo8emQjy0UM/srV90QY3v/nNp1eLo44PrX7KZKKHW/lZenR0bCdmJjtYoXxpJqGtxu1nVZNBXZlMCIE29QK5rupbRVbyd7/73cMKn9Wzot4pfPjDHx6STx93KlZT/TIhHby7mVLOhyRuktOZDRaFyTGrO3l+6qd+atrS0bEz2DDZs7IL6CRyghwEPhorpnOFW2arlkSok8BGyIpXxwgkcHglwdTlW/Ks3pDbb3TqffzAO0mvb35tuPjii4fzZsj44aM/Xs6LThjgLkJ/R/RIORNKnbQ6OraKI5JdoNXV0opePwO3t/NWbQGKrgKNo50E2sTPLT6YIAS9W38JVT/zKptU0KJ78IMfPCSacd/whjcMdx+SEdS5RfYNuOvIYAXFwyHZ6mdmYxkjmDU+GE8f/PFxlxAdWvtUfdWnTCb8yUlnsjzzmc8cPmagc22y3O3P8eeff/5wmMDIkfLVV189pejYs/At3VbgW+SDgTstXQffKB9MkEPfbu8WqOTXgo7lcNZZZx049thjD9zkJjcZDtcH74ymrR17GRvexm8EK6JVyMpjxazI78pZETv2Dn791399cswxx0y++c1vDscP/MAPTM4444xpa8dextLJDj4Lu/1sE9rtn1tdt6K7DRNPn2CWxymnnDK58Y1vPC1NJt/4xjcmp59++rTUsZfRX17RcQSe9rSnTV7zmtcM134lqF9+duxdbGll79if+LVf+7XJrW51q8mNbnSjyWMf+9hpbcdeR1/ZO0Yh2X1m/+QnP3nYw0Ydexd9Ze8Yxc/8zM8M3730RN8/6MneMQpfrj772c+eljr2A2bexv/bv/3b5H3ve99wK9exnvjqV786+aEf+qFpqWMv4GY3u9nwoFYeCKsYTfaXv/zlk9/7vd+b3O9+9xs6d6w2LrnkkuEJt3vd617Tmv2B7373u5O/+Iu/OOK9CUcL//qv/zrkw13ucpdpzerB06x+Dvesy5Of/ORp7bUYTfZb3vKWk1e+8pWTu971rtOajlXGm970pskXvvCFfXfb/T//8z+TX/zFX5y85z3vOeJPWEcDf/iHfzi5wx3uMPmN3/iNac1qwl357//+708+97nPTWuuxRGf2b/yla9MbnjDG/ZE7+jYo7jnPe85ueqqq474P0P/gq6jY00wd7L/+7//++Sf/umfpqVr/37p+Ou//uuhrWM98J//+Z+HHbsNv/u//vWvH/4RWOPxaMBH3fZoQUYybwQ0W82heXwxd7K/5S1vGf4nHqYnnHDC5OSTTx6uPT8NUUp5MwU79iYSlEdrgpfo4s7fnC+77LIhUcRkYjDxmboak7UNalv6Q+23EXx2d1x00UWHrqH2Jatc2UgeNI6WBlyPyaMu0O9P//RPD6sbw1zJHqEe9rCHHXqhQrvSu9ZmQLMuAzzhCU841Ldj74N/Tfg5H42EF0+f+MQnhutnPetZkwc84AGHxSLZHBanGocXXHDBsPJqkzjq0Dz84Q8fEsWBxyLxe/vb3344cn3Tm9506GuM9DUG+XyJaozwNRZaslSZI2P+fGRySz/0gCb90X7xi18cbNJOCC3mSnZC+Ieb2cd1C4OYZR//+McPCnMC5X/iJ35iEKZjf8CLN6xSEoR/Jdpuw8dGkDB+fdgoGe9///sPskqGxz3uccNilYQQm+JUvFqRtZvAlMVxEnmRCQ2t14rrXxfGQBt5/LLgPEYjz/TPSg/kQy+hTUbOyu5uyMwnZNVnIxyR7GPP2FBCkjOuh2wyiwaMaeYBxjTzGHyz24qOvQWrjFjgXwG3SCJsB8STQ6Cfd955QzJb9WZB4sLtbne74Qx5SOy2t73tcEYTOhC/7gLE76KIfEH7QNoYz5vc5CbTq2tRZUn/1LVnWCTHNl3ZzTxmDL8xOv7qr/5q8oEPfGDaei3MRmedddZhv/NGiC996UvDuWPvw8puNeJv581Wkp2AFV1MSkqrmkQmVz5WtLHZok2uFonbnN2xzovIQTZy5BVky2JMVonusOA6rOpgzM0S/wYvOojp9YBvfetbk3POOWfyiEc8Yih/7WtfG4T29hJwxpSjvSTC4R9Sbov8JVK9s34CAq22jp3Dbj1Bd8011wz+5l/nxMROoT5B59bXeB6yEdjelPRLv/RLQ1m9BBBz6kwAVtHI6NqBxuO/2rUpi13X//d//zfQZAIbi99ZT9CFh7F8tEFHroxRz2gksevY0YFHlRl95FYHKctHd9N2E4r+5FanHbzH0QKsLTjiCborr7xyeKDmbW9727SmY9XRn6DbHeyVJ+jAhPAf//Efhz3uPvdPbx0dHXsbPdk7OtYEPdk7OtYEPdk7OtYEPdk7OtYEo9/Ge33wxz72sWlNx6rDAyZXXHHF8B/m/YRvf/vbkzvf+c7DLw2r8G387/zO7ww/d/mtf9XxIz/yI0d8Gz+a7F5ps9FjiB2rhVe/+tWTT3/604c2q9wv8MzHbW5zm+G37lVIdjsc3fGOd5w8/elPn9asLiS5SbL/9NbRsYboyd7RsSaYO9ln7ZuuzrPKs7YIUl//2RP6sbrKI3XtmMrtNsZerjcP9M22zhWzdAP0bZ+N6FcdreyuWzu3PgvYodK15fCq9kpdC/WtXRdByzcy5xiTK0cwpmdoa/9loD/+gXL0TX1tn4X0a229DOZKdv+btTf5mHDaPPxvf/Q26ZTV6+f5ZkCvrE+SNrydGZpidoGlnH41KNTZz7x+1aC8GSJD/hMcZKw6RpDx6+SyEf2qg+708WUeRBd65kxXn/21+TIqCE1skZ16U46tYmf9K/+TTjppoAv42jjNV0ZzQYzoX/lmPAc9tQVkzP79Dm2eHTd+y6PqsBWQ0Sud8QTnfKcSGYwzC2eeeeb06lpe6MNrWcyV7I961KNm/oPngQ984PC/Wl9eSODqPH3sqmrDgRjfGa0+SVJlNM4UYgTXD3rQg4axa7IF+MQxAQcKgkwaFf5M0G4tjcfZZ589jDMGzql6oxdIs+hXHfFjvuxiE7vt0seXsvRzZqdHP/rRh717nC30D7TzUWD3GD6NH9m/5R+fmCj8c25ZREZ8jSFmXJNJmY7OFeJUu4OsYo+8+qH/7Gc/O0wIeCt7HfNWgf/YpOFZf3GU+DchBuj9lfjCCy8c4p5uH/7whwf6XUn21nAVDCO5CMwB9VvTBIsk5NxW2JTRCTTKM36lM/bXv/71aek6SFIOzBigPxkc7arBwS0Y85GPfOTMtpvf/ObDz5CBOgE/Rr8XMOZHdWyfa4ektNqFPraoeo/ZoPVjEF5ihW/50/WyMDY+4Rs5QcLWSShQL071IaP+td+ll1466Gm7q9hjqyBnu1jhLeZMBMZna3EsR7Q5vLzCXVVsiNakSf6tYFu+oEuCEaa9LaMEmPEpXw2ZgFEnOSmlLkfa2v3GGMhRA6byhbbcgrMzs7qudwj6ZpY3q5r1L7744pn0exn04De2DwSZlYWN6c03bMEO7DHLtuqrH0FAf/CDHxzGwc9Y2QaaHR3LgDz4Vh54Gi9jB1ZzK7UYpZuYrDTk9hOVhcrdqWM7gK+x2SQ2c7ZQWanJq0wmsZXEr1CPtpV5GSyV7ASMoPm8w/gRhtDgdg0NhUG7MnBQZla3LmbjlCVxDO7cKqmd8+rtD5o43Xkew5h1I0/O9IKxtrG6vQx2EoiSIPaqH434FPiGvpvp3PoxQQp46c+GsBX7tXxrstc7scSolVVMulZHPv3SDj/7sz87ecELXjDYwWSFf/huFXVVNubP/dzPHZpcE6sOvshqHrnIzT9k3qo8mz5UY9D6uUMbh2YGJ4xVkLBxNGdok+x1lqQ0gbWjpwS0/NPXSmJVd1cQkKeOrWy1UWZIbRzOaAk6GJOFDCAYjIueUyIX4EnmOAEq/Spgnodqxvzoo1XtIxFNpPyDnh2r7ast2CnBx47sn4CG6kf+aXnhL6FqXYuNHqrJ+HQID2NVv+NPn8Qk+shh/OhpNY1/Z8kL4nveh2rauMEXLHzefSftkkdiUUyJz8Re6MludScPOyvXO9pZGHuopj9Btw/Qn6DbHSyS7IsgC2Ym2+1Af4Kuo2NFYSLZrkSfhZ7sHR1HGZLc3fROoyd7R8eaoCd7R8eaoCd7R8eaYOa38Xl+umP18drXvnZy+eWXT17xildMa/YHfBv/oz/6o8M73FcB3sN+/PHHT57ylKdMa1YXt771ref76c1veh//+MenNR2rjnPPPXf4TXc/vqnmTne608r8DOxNNX7nfuITnzitWV14U82mP701ud/R0bFP0D+zd3SsCbYl2cf+lbYRFqWv0Pdzn/vctHQt3ve+902vFsduyt7RcTQxV7JLplNPPXXy3ve+d1pzHWwC+eQnP3nYPvetb33rtPZa6Pe85z1v2CQy+2pX+iRprZPIEkrZZ9BsMBloU18/bszzWVU/vPANFpXdOOjvdre7bWmCOVogM9n9kw1iE3qyAXzkIx85pLdzBZrYAp2YSBnQh1f8uBn/ZT828kWND3xd8w+/VpBFfcaFMXp0oQndshBP9d+a0RuMxzYpjyHxFTr8thpzcyW7Af0raOz5ZN+W2sb5da973eD46jz9fKmhPUFB4L/8y78c9ntXh8Z/pfV/0pOeNLQzjM0l9b3f/e43U0n90QboGFIQtKs/OvwrWtkrxmTHQ9mk1wbUXgCd2DN+ZCM2eelLXzr4Vzl19KSvPkBf9qqwT3qgHx54xY+L8F8EAj/+wds1+VzzZY0JIAu9tYsr7WP0+JKTbHhvFcY0mbQQ7+qdoS5WYu2Nb3zjoQSnG7vTIfTLYq5kJ/SsgbQRkMA1kCD9GJORCV75cLxygkY5zkhgObfOA99Ah2/AgcZ0MFadeDixDdZW9opWdiBfMCbTqqPVkV7sAvEFGn5iP+3qtKkLLaQtYNvwjx/n5b8o8HJkVcYjSQGROZAo2WbZmMot/fvf//4hprThiW6riO41VozrMKFED+XQiMe8UIWttJPF5FMnhWWwLZ/ZGc1BsPa2jBIUyExJsaA6Ok6jGJraVvsAh+BpZq5ARw48qrM3QpW9BdnNrpHdiuT2TqDqsx/AZvShW2weP9BfuyDTvhlCGx+kbiP+ywBPiWRVBvFQob3CePavB22t79TZDz3ytf2XBT5ilP4t1GlnA/El/l3XCTXIgrSsvYItJzshCMiZrdGVkywM6Yghq0ETIFnhayBkZqtQxrM1YuXZ9hmDce9973tvKHsNUjzNyOrGnLLXwF5JxNhL0AFfqPvoRz86lNFpE3izJlI0+mSFn4f/JZdcMpQXQXhBYqqdsGtC81XaEk8t/Yknnjj8fq5NbPF/jadlQT76R28xZdy6UEUHbfWjEbh7QdvWL4MjHqr58pe/PDxBVx+qMaDkYyDGIDwnmlnrjMPJhPJljM/k+lEiyUJowRJDJmnQx4HGYGwraIxgnPBQNranxp7//OcP/fGUhIzlQItfNRBjGzfOJgvZ4/B5ZMeDruqU03a0Me9DNdWP7MYOmWiBDVyro1t8EbAtm7ATH8Tv1Wfxo/M8/J/73OfO/K/6Rg/VtPGRuMhY/JOJBp1YEequtfF7Sx8elW8FHed9qEassY/xge3xxcMTeB52Sezm+yv2FcdwxhlnDAsRORz6kpkNHZth7KGauZK9Y7XRn6C7DkmMebEI/SLJvij4zuQ4TyLPg7meoOvo2MtYJNFhUfqdgDtGcmxXos9CT/aOjqMMt/q53d9J9GTv6FgT9GTv6FgT9GTv6FgTzEz261//+v3YQ8d+9dkq6bVKsmx2jGH0pze7vPT3xu8d7Pf3xn/zm9+c1hxd7NR743cCfnLrP711dKwperJ3dKwJ9lyy25urxVhdR0fH4Zgr2SWTTQFtVtfCPlXaHB7ZrFC2eZ7dVtEBHsqOJKlN7ZTxCGxsZ/M+/SsiS/2qoe7muhHwzIZ5QKaWPxhDvXHSrk5fddlBdK8htqt+WkRPNPEjOv5JGdDrVzd45O/TTjttWjqcP78vC+NWvxs7cYV3RcYkV/yvLrpXnaLDVmQDPKsc7BB7kiEyzUJyLXTkGcu/RTBXstdAaGGHSTtPOtDVJCSgHTJtr5wvjxj8/PPPH3auZAw87V6pbEdOilHKM8vZ0bIGVAW6Via0Y0aJoe3QCWhytFDn8UUyuZYcdPGfAXV79YuwJGFsFt3pREcH+1U9Q6ueDTJRJBlSRse2fObtxNrViY/qo8q/jZd5EVkzNmQnX7GGd4Uxs2swOv3oJjbRxi7o7BysDl2Ve1Hoa5zEHST26K/eGWJL4BMvRyFT9Mtuw57L3wrmSnZGmjWQthgPTf0Hky1vKURxAsd4rh0UixPSjp7RBQw4JygrGK5NOgZCq7/rGki2yq3bLhuHfGP/uLL3Fvo6rnJk26rRjxYEMTsH9JEgFWxU9YxfTMi+jQ7YIz6C6kcJ4+zA3znAPxsYLmtH/Yxf+ZKRv0wgdRIAsUInsKCgc6SOPF7VZStlfcVOK/cysCur3Vlbefx6YuzIakIMjToLjbikUyZNyKS0LLblM3uMx5AtCCopE1TVgNXZggsYPsECaJQrGMZdQYILjKNeAjvqbLksMoFFTvyzF/1+glXGKjdLz6yC86D6cRb4SlCbPGb9vXVRRH4x6GNDEgTqNSjXOnr63753xrmu747bCoxR7xwCP93JF3BmB/Hqmg7eEwgmhCxQfBLbLostJzsBzLJRqq6mhFdnhqNEmySZWXPrns3vM/uCczuJMKK+VflZvJdBxqYTx0sGY+GpzviMvx8g6dguQdXqacVTJ/kddRVqET+2dwsVeBpzO/ciBzLj53AdHwIfGhec6YsmdWh/+Zd/eahzt8IWadsqxL2D3UBSu5Yz0d+4sW07qVrUtMc/W8FcyR4nEii3FRwGZn3XDgKZqfPFBHrQBw+guD4mgTghdGjQMoLbxhiGshXKPvfjU52qHg+yuK6rhoQ1Dno0AtjZNlfO5ECj3bUvepSNTx4BTi91rumxl0AnesaP9GdfB33S1urp5Q4XXnjhcBclQbOCoucj9kHb+hH/8K1jh29iQtuiiA/DFz/jianEZWJBm8Q6++yzhzHJzJ8WEPTqJL/DJEUfdWywjGxjwJfewHY+VsTuxgOru3ImAGPTiVz0jZxolsVcT9AZNMisSABnIAglUk6bczVYFGnpx/jrFz7qKurYrqGW0bfJyEjVUNprOWPq6xgbfyOZjibmfYKutTMbxH6g7Jilp3pH+rkO0FZes/hDa/dZtpz1BF3kCyI3vtrwBGW8HelTx1OHRt8qAzuNybXIE3R4O6rOkS2y59pZTpgEcldU6SMPVJ4bYewJuv647D5Af1x2d7BIsi8CdyD5RaqdYJbFXI/LNrnf0dGxw/BdlZ8MtyvRZ2Fbvo3v6OhYffRk7+hYE/Rk7+hYE/Rk7+hYExzxbfyXvvSl4dv4T37yk9OajlWH98Zffvnlk5e//OXTmv0B740//vjjh5hcBTznOc8Z5NmJ98ZvN374h394/pdXfP/73+/HHjr2q89WSa9VkmWzYwz9Nr6jY03Qk72jY00wV7L7b7ktamw8F9i4LhsdthijD7Sp1x7g0dKnrvLPmNmMMVDfjmXvrHkeEMoGfAHexlA/hpZ+I11XEeQkcxCbRidt6sZ2a9W31qGr5diu2iL8235t3aIY42FcdVW/YF56dhjTfVHoj0+gHBvHPtVOsxB/OMb0WgSbJrsB7Jhpx0kDEpDgznbzlFTVMGP0FdnN0pGNCJ1b/qkLf/UO+2HhURPZmJEhBsErmGUkjnZUWryNoa46C1r66Gq3zci+yqAbe+Yvw2SmT3ZbZUM6q/cHGLoF8Ul016+W2QL/7EyqXnA7s6fdUSt/Y+K/zBObiYXwMDZ5nFNXYbwaO7Po0ZBPnfbE1DKgO53rJJp4EvvKY1DvsItroJzdZreCTZOdYLauZQCOjDAMoU19NcoYfYU29enHGBRRtksmxyiHhwPU2w9Lm/6f//znh/oKvOL8QEAysno8KkxWdVvn9DOGo3V2Sx9d/f94TNdVQ2yffwO6rv6A7DumXINS8Ffd0bS2sN2wfurZLknNluqUHa6N6Rjz42aQtGJF/8hY+Rqz+kJc6JPYUW7pL7300iHZ9dNuC2f0WwEZJXwF/hdccMEQl2wKtglPrJmMPDrrr8XkIadznViXxVy38ZSOQWM0RiakOgaraOkr4hwJKGAoGaNqY+h6jVZ7pXNuFUfHIAJOX9BfP+MI6sysQegCZbqceuqpgyPGZG+xka57AbEzxL7KJrAkPFuwy5j+FdrZQn+2aH2rPFa3DPTjp0wmxg3wjU7g2hbGgFbflt7PVOoT39sBfMVekhrUPexhDxsmGuOIG9eZaLT7S66/f5OF3fFwiO+tYK5kZywzlI3zCSNpCGETeYJWZSD0Zjb0FRRCT3iOwieGZ2x1wAgMgAfESYBev4pqrMCqEcdpyzizQG403gFm0mj1GsNGuu4FsJuDPyC2davP3lY8/nYdn8yyY2yBF1vwZWjj27YuSbgI9MeHn1yTq9oe35qwrq+++urhGj3alv4Od7jDUJcY2A7gI2HJZwxwftnLXnaoXGkcrivYMzbfqlxzJXscyGAGFAwxSgzrrK7SR0AHRcBtShJaPQNTRn9nba4lmokk/RlB0IVXGyRoJZy7jeBXfuVXBlpyjRnSOOHvoEd0QK+c8aClB7p6yKLWrSLIFvlzpiubVzvTh+1dgyTIrT5fZZJteaVv9TtfVp8pO8Jf35qU80J/q1zGiVxVbnyNqaytlaOlP/HEE4f4YRNt+Wy/HWC/rMr4+46HDMAG5CcveWLfxKH2TMRbxQ1edBDT6wH+O3zeeedNnvrUpw7lOPOyyy4bBLjmmmsGgZyTnJIodNDSU0T5hBNOmFx55ZUDrTZ1p5xyynC8+c1vnhx77LGTM8888xAvNA71xnRtTMr7n3OQMfAB1/rkszTeztrVBwKAPEAWNPqq5wBJkDayt/RkaHVFt9u46KKLhpca3Oc+95nWHAmy+b80veignOvYmT7s/653vWvg6Zo91OdQjo3ib/qra23BnsBnsb94iR+F3kZ/6/zOd74z/Ff/rLPOmtZcC7zECDnJiCfeZMbXG2joZhxyJe7QP+QhD5lJHx3Fi5huffnOd75zkPce97jHtGY2EpP4ibnYDl9yGVscO9MncRkf3vnOdx5sSV62JrPr2HozeLOQF2gec8wx05oNHpf9+Mc/Pq3pWHV4XNabTbb6mW7V4HHZO93pTivzIhUrv7fEbPfjsu42+M4dwDyJPA/c+fa93jo6VgxW7e1M9Fnoyd7RcZThI8ROJzr0ZO/oWBP0ZO/oWBP0ZO/oWBOMfht/97vffdg8oWNv4LWvfe3w8opXvOIV05r9Aa+S9ln2a1/72rTm6MJPgF5e8ZSnPGVas7q49a1vvfl745Ps/b3xewf9vfG7g516b/xOYK73xnd0dOxP9GTv6FgTzJ3sdW8t8HhmW1exUZu+joox+rExPSnWQl3dxwyykd5mmFeWYFH6VcOY/GM2HdNJv0rblqEtj9GMybAo9J83PkKbIxijn8VjUeDjCGo5/Gv7LKTfPLSb4Yhkbz7CD7Cjpd0m7XvNWAa2y6lr5xYtfYVdNiUiGpvZQaWXtPirsyuoR3eV8UkfdFVObe04+o7pUmGs7NYKGVe9MVqnt/RQZW9lWDWQj/z1s33srD62d63uuOOOO8wG9PYcOeCFT8qxHTsEoc8uv4Cm9f+iIFNkFB+AV9Wlgl7G5ycHWdGTLfEE+KrDo+qxDIxJttjPOTaInWsctQgtoBuL8UWx6cpOKFv12l3Sw/UZ1Na9/nebHSiDMfoKW+Xa20obwzOCPxeg90cNG9zhkf62gUbDQMr6GjNvW6nQj7OcgwRBWw/G9aVLBRpjqK96QUsf2V/wghcMstNn1VHlpys/srWjtT3/xn/sX0Fvfg7Sr+4w+sY3vnHgwzaxJZuxrzpJtdmEPAv64y0W8DSuOjKQraLVUztfuSaLvmjIY392enmBhLqtgP3E3RjUJ4YrjU0eX//61w9nNqMbukxSW8Gmyc4w2WrZgJJP2bUZlABphzH6irptM6MKpjjHWZnx4wCHa4EYoGOECv+4YjRODT99ySAo1LczabbBDfRz0Muq1cre0pPVSwa8+SWyrzLIH9uA6+gomdmIrdGZINmYv2JHwRugq7ziswplPOLHHOC8rL0yFh5kcB3dEj8V6LLi0wsqnX7+iYZGHLGFuqrfMhAb5KqLRmQ2MUFiKLEpzh//+McPdwV8gz6TVF3tl8Fcn9kNKJHMegQlPCUicDvrt/QtzFoMLZBqewyRawlnJVKHPm2eJdZeQSaGqxOP/a71Sf86YYwhEwi9TETVSZuhyr6XQG5BxD58GggubXyr3R2Zco554I4nt/rxH9tKOHzreIuCr/ElZ4CnSam9W7N6W6kd5JBYzgF96oQtbrYD+LZJqs5PpeqMJeZMouROXlWIWbTs2C5wi2KuZGdUwZ9VgMBmI8YRBKlzwBh92hJYaaNcJgvKmCDQCghOi1PiCGAAdBX4oTeRBGjSB8/NgivJ6ozW7VOVvYWJhZPcipI9tthL4A92ij/4QtCxOx8KfO30U88W8ddmYHvJndtt0Fcd/uryPrxFQBZy4xufkU1cSK7UJTm05Towfuro5D/lJic+xDe6bgfwkxPAJqeffvohOcngTB53FmxeQY7cmW5VniMeqvniF784Ofnkkw89VEMYtz9JunzmJrzB1UsySjgETUtv5opztAWU5HgzLUfhp2xM/OM0iuJrAlAn+MgQCCB98hmJwcyE559//mBACUkOPCIX4GfM6GFsk0WSPA6J7LPoJYQ65ci8m5j3oRp68BFZY3tfRMUmko/ObMie6mvygDa24DN2Dd1973vfydvf/vZDvHNHZkztmbj5Sj90+Gxkr1kP1UgAuqZvJiW8U4c3OhOycb3IQaiLnXwcSTwlRiH+rHUBHeZ9qKbGJCSe8Xjwgx88yCGu2SKyilV3H0BeL1/RhzwWV3FJrnr3OgtjD9Vsmuwdq4/+BN3uYJFkXwQmPr6bN5HnQX+CrqNjBeEuwEq/XYk+Cz3ZOzqOMny8zHcmO4me7B0da4Ke7B0da4Ke7B0da4KZ38bnUb6O1cdrXvOa4eUVr3zlK6c1+wO+jbdJxVVXXTWtObrwc5iXV2RPhVXGrW51q/l+evPyiv7e+L2D/t743cFOvTd+J9DfG9/Rscboyd7RsSbYF8nun0rZdyywF1hHR8d1mCvZbSxnh87sbOlQdjziEY+YUl2Hlr6itvlbIfisGX6hV2dHVnSg3ljK2upXDfbKwrcCXfN1xBHA84wzzjjUlzz6OYzVfgaOPI70QRP6VtdVA/nIarfQoPojE2Rs3/pWP7SAF7qUQXvdRZc98VBnA0XIeA5+WwbGjszxUcaqvglCn3YYo49O6qtey4C+rS1id2NEplmIbSITGfHYCjZNdoPBS1/60mEHSkpEEHX+LRRHwhh9hYB6yUteMrRTHj0llO2aGqW8Qtj+785JZrte2hMru7yOwXi1DS1jjQUWnrbPDX323HK4pluLtJMVb4dXOdM1QbOqYBs6Vfu4Znu2JT99Yvvq29jcOWXtKcdnFfYhxxuvJCX6jMf/m03IYyCnsWss4OULNHWtH6K3Pff9PVqfMXpnOqDjz2qnZWCs6A2xFVmiA2QSALL+3d/93WGTYWR23go2TXYDZOviODROJqSzxAjG6CsY2N8aKaJfpXFOfXiEv/pKd8kllwzXFeThoGoUM3cmnWpUEHCtfGBMR5wR4M15eGqv4+BDl1UGm7b6sgGwL321o2Ov6lu2Cy2oTxu4ZueK6gtnZf43Fn7ol/mLa03C2F1d5HEme6A9bXSkW0v//ve/f3LBBRcMtHyMrvp3GdAPvyoL0J+NJby2HMAutm32bzdykZWOeNWJYxnM/ZmdEAZlhDhRuVUkqPQtKKuf4MELXQv1lKNkDZictVcwXIwYxMmOBNk8wKsGdpAVyWHmjTzPf/7zhz4p7zWwC3vGV67ZLuDLZYL/uc997jAxup3l7/jMOccyYH8y4R3ZN+OVduex+LnpTW86vdo+GMOdAzmDjCteXLOz2BTrrqudneWGekk/b/zOwlzJThADJ5EMKoEkooMgFS19BSfpn2SiXJQQEEl8yZQxwHUmFsrf5S53Ga4D7VANUiejynsz4B9+FXSKAxK8JgAHOeflv0rgjwQcsF/K8W2CLcnV+nsW2MMtsdt49lQW5PhKAnyWuY0HPPHAE29HEsm5+qK28ZuYa+lPPPHE4fdz9XRP3GwVyYPYjP2MJ/4jI5rYOPEesHkWmK3iBi86iOn1AP8dPu+88w49JUQwTw4R6F3vetfkyiuvHASS0AzCeVk1L7rookGBlt51Vgdtxx577CF6tyxeokBZvM4888zh+s1vfvMwPh7o01ebshcA5BbwsssuG+rIgQYtw3k5gf7GcjzkIQ85LAjooB3PBIGzOrSgHNm9iAEfZXKecsopk4c+9KEDDV28oIAcuw1j+080W24EcscebEZ+weQ/4+r5KnpqZ0OBSlc+dxiLnbXhp0x/D3D8zd/8zaHyCSecMNjVyyCMp686fZSNZ3zHLHznO98Z/qtv26UKcrpbICPZ8Wb3xz72scP4fEwPC4YxJTAe5NEuccboncmrjnzqqj/f+c53DrfX97jHPaY1s0E2uUM/45MFf/b0XcaXv/zlQzki1ozDLklqHykgE4F80F/ZeTN4IYZcOOaYY6Y1cz5BlxkwMCBwah0YnbYx+o3aIPVtOUg9xRmvRfjnGmo51y3qOLPoFy3vNhZ5gq7Vt5YhevCt61avqmvbt0Wl24jPLGz2BF0bf9DyreV56GGWbCa5RZ6g20iWts0kqFzvhkNT5Z4lW4uxJ+j647L7AP1x2d3Bosk+LyS6JMZ/u9Afl+3oWEG4dd/ORJ+FnuwdHWuCnuwdHWuCI5J92Z9COjo6Vht9Ze/oWBMc8W28bz79jtjfG7930N8bvzvYqffG7wR8C9+/je/oWFP0ZO/oWBP0ZO/oWBPMley2p/G8tCOwsZ9NGrOvdMUYfWBjQc8fe47c89yAXrnSpw4toNXueXdtFTbFa+Ug2zy/LOinP5AN/xwZO8j4joxX6Vu5VhFVXxjzVWv7IL4L0NWydv0CT/Xhq841jPl/GeBTZaZT/FBlCOgtJqJ7jSe8gtij2mgZjNkiPMli/I3GiL1C50jdspgr2X3x48sJz+QSlEHsLGnHSbuvtkK09BUMafdK7XGW3SvtFopeIDBUtt8Nf3zsZOlPM/i3iZzAieNqIFVnVnBGld8upv5A4LDJXgt6p912PcZweIWzumxLvKpgQ/ryXVB9FdvbWTS2T0DSk5/UAVvETynr5xygZ0e7rFZf29lUHfsv81Mvf+FTk4Uc9OAHslegI7941S/xZH818SThQ0cHfNioxtCiMAZ+1X6xlT3dtHv0Fmp8qnf4E4s+/njjjNb1VjBXsjOSgXIYmEBVmIqWvkLbcccdd6gvRUMnCBgkWwerS9Ixfja+014DNkigVnnM5urqrB4IDBNPReTFv24LHRgjMmccMqdulZEkq4ivEniZ8KAGmOSotuKLuqWxcnwWsIt6PGOr+F0dmy0DcpGxjoUvfq2PQawaD+igTLbsr0bGiy++eHL22WcPfEyArS7LAI9MchX+RUgGk52z8ZwB/ec///mh7DABi0WT6NgdyyKY+zM7Qxo0BmJwghEogVLR0lcwaGZQ/a3YwLgJCqCgPwjgnyABq1CMExgrq1ToyKAvo5vBjTkP8Blb2RMw+FoNjJMD77FA2wtgS8Gf5GVrkyM96ZzVOpPtvDj99NMHOyVOsu99MBY3y4K/EiMnnXTStPZaGDcxAWSpcmj76Ec/OsSV1d6xHTCGSSl3DkE28zAuG5uAxQ56x6mnnjq0sT2f0C20W8Hcn9kFs6QBghGAIgRtb9Vb+ookSpJSAEnotCWhzGicEh5JeEAfugBt60R9jAEx5Dwg/9gkRV/yWvHJirdJRB193CLuNdC1rmRsCBdeeOEh30pWk6mVhd5J/s3ATuxiNcU7k/pOgL+M58wfVUZjx/fOyuIndXT6yZ/8yaE+x3YhE6QxQO6wd41NNGKHrdmrIhNFjf9lsWmyG4CzOYoBCc2gBFaW1AyXIBijV5cJQcBwvjYHhXONpzZ9KK+NcQSg+oypvQ0c7fXzF7S821tYvAWxAw20Bq2yn3baaQMdHRIsVkB1dG4noFUDOdnOQXdgLytZ2qpO+Ugl8dnWZKcsOMODb5zf+973Dmf9c853AHgl6ONTbXgt8w66jF3HYn9+ih54Kyd23KKjjU50TjzB3e52t0HHTNhssF1gN2MFbEBmB3mAfcRh7KQt/kAfOuVlsekTdJgzUmCGIRAjMSTDOVyj1d7Sa48DahslTBwZo/KKEyD1caQ++AboQZ12fEMHnB4eFcaM8aos+rZGT1mf6ATayVXrdhvzPkFX9QX6jvmDvo4xm9G1+j/wDoQPfOAD09K1wcsm+OMb+0Hq8HaehVlP0LXxUcdKGV80GYM+yjV2Yg91VY5Z8WLVnfcJuhqTYHxjka3qH5nUSfbcyaKH6BVZ9AvPjTD2BF1/XHYfoD8uuztYJNkXgbscK7c7izrpbAX9cdmOjhWE7xryq8hOoid7R8eaoCd7R8eaoCd7R8eaoCd7R8eaYPTb+JNPPnnyqU99alrTserwKuLLL7988gd/8AfTmv0B38Yff/zxw4YKq4Df/u3fHuTZjt1Zdhq3u93t5vvpTbL398bvHfT3xu8Oduq98TuB/t74jo41Rk/2jo41QU/2jo41QU/2jo41wRHJfvvb337y1a9+dTg6Ojr2Hi699NLJDW5wg8O+nIMjvo2Hpz3taZMrrrhi8pu/+ZuTW97yltPajlXF3/7t3w677/LbfsL//u//Dn9Pfcc73jGtObr4kz/5k+EnLXvyryq+8pWvTF73utcN+8K3v86MJvv3vve9yYtf/OLJu9/97snVV189re1YVVxzzTXDuW68vx8gNL/xjW8csUIdLewFO/szzX3ve9/hHXZW94rRZO/o6Nh/6F/QdXSsCXqyd3SsCXqyd3SsCXqyd3SsCXqyd3SsCXqyd3SsBSaT/wegwbr/tA1nkgAAAABJRU5ErkJggg==;" vertex="1" parent="1">
          <mxGeometry x="-396.49" y="490" width="264.37" height="186.43" as="geometry" />
        </mxCell>
        <mxCell id="70_-coMu-GgpPG_OgK7x-25" value="" style="endArrow=classic;html=1;rounded=0;exitX=0;exitY=1;exitDx=0;exitDy=0;entryX=1;entryY=0.5;entryDx=0;entryDy=0;" edge="1" parent="1" source="70_-coMu-GgpPG_OgK7x-9" target="70_-coMu-GgpPG_OgK7x-23">
          <mxGeometry width="50" height="50" relative="1" as="geometry">
            <mxPoint x="167.14" y="530" as="sourcePoint" />
            <mxPoint x="70" y="590" as="targetPoint" />
          </mxGeometry>
        </mxCell>
      </root>
    </mxGraphModel>
  </diagram>
</mxfile>
